# MagicaVoxel @ Ephtracy

# group
o 

# material
mtllib Fireball.mtl
usemtl palette

# normals
vn -1 0 0
vn 1 0 0
vn 0 0 1
vn 0 0 -1
vn 0 -1 0
vn 0 1 0

# texcoords
vt 0.138672 0.5
vt 0.185547 0.5
vt 0.853516 0.5
vt 0.861328 0.5
vt 0.869141 0.5
vt 0.970703 0.5

# verts
v -0.3 -0.1 0
v -0.3 -0.1 -0.4
v -0.3 0 0
v -0.3 0 -0.4
v -0.3 0.2 0
v -0.3 0.2 -0.4
v -0.3 0.3 0
v -0.3 0.3 -0.4
v -0.2 -0.1 0.4
v -0.2 -0.1 0
v -0.2 0 0.3
v -0.2 0 0.2
v -0.2 0 0
v -0.2 0 -0.2
v -0.2 0.1 0.3
v -0.2 0.1 0.2
v -0.2 0.2 0.4
v -0.2 0.2 0.3
v -0.2 0.2 0.2
v -0.2 0.2 0.1
v -0.2 0.2 0
v -0.2 0.2 -0.2
v -0.2 0.3 0.3
v -0.2 0.3 0.2
v -0.2 0.3 0.1
v -0.2 0.3 0
v -0.1 -0.2 0.3
v -0.1 -0.2 -0.1
v -0.1 -0.1 0.3
v -0.1 -0.1 -0.1
v -0.1 -0.1 -0.2
v -0.1 0 -0.1
v -0.1 0 -0.2
v -0.1 0.1 -0.2
v -0.1 0.1 -0.5
v -0.1 0.2 0.4
v -0.1 0.2 0.3
v -0.1 0.2 -0.1
v -0.1 0.2 -0.2
v -0.1 0.2 -0.5
v -0.1 0.3 0.4
v -0.1 0.3 0.3
v -0.1 0.3 0.2
v -0.1 0.3 0.1
v -0.1 0.3 0
v -0.1 0.3 -0.1
v -0.1 0.3 -0.2
v -0.1 0.3 -0.4
v -0.1 0.4 0.3
v -0.1 0.4 -0.1
v -0.1 0.4 -0.4
v 0 -0.2 -0.1
v 0 -0.2 -0.4
v 0 -0.1 -0.1
v 0 -0.1 -0.2
v 0 -0.1 -0.4
v 0 -0.1 -0.5
v 0 0 -0.2
v 0 0 -0.5
v 0.1 0.2 -0.2
v 0.1 0.2 -0.5
v 0.1 0.3 -0.2
v 0.1 0.3 -0.5
v 0.2 0.4 0
v 0.2 0.4 -0.1
v 0.2 0.4 -0.4
v 0.2 0.5 0
v 0.2 0.5 -0.4
v 0.3 -0.2 -0.1
v 0.3 -0.2 -0.3
v 0.3 -0.1 -0.1
v 0.3 -0.1 -0.3
v 0.3 0 -0.2
v 0.3 0 -0.5
v 0.3 0.1 -0.2
v 0.3 0.1 -0.5
v 0.4 0.1 -0.1
v 0.4 0.1 -0.3
v 0.4 0.2 -0.1
v 0.4 0.2 -0.3
v -0.2 -0.1 -0.1
v -0.2 -0.1 -0.4
v -0.2 0 -0.1
v -0.2 0 -0.2
v -0.2 0 -0.4
v -0.2 0.2 -0.1
v -0.2 0.2 -0.2
v -0.2 0.2 -0.4
v -0.2 0.3 -0.1
v -0.2 0.3 -0.4
v 0 0.1 -0.2
v 0 0.1 -0.5
v 0 0.2 -0.2
v 0 0.2 -0.5
v 0 0.3 -0.1
v 0 0.3 -0.2
v 0 0.3 -0.4
v 0 0.4 -0.1
v 0 0.4 -0.4
v 0.1 -0.2 -0.1
v 0.1 -0.2 -0.4
v 0.1 -0.1 -0.1
v 0.1 -0.1 -0.4
v 0.1 -0.1 -0.5
v 0.1 0 -0.1
v 0.1 0 -0.2
v 0.1 0 -0.5
v 0.2 0.2 -0.2
v 0.2 0.2 -0.5
v 0.2 0.3 -0.2
v 0.2 0.3 -0.5
v 0.3 -0.2 0.3
v 0.3 -0.2 0
v 0.3 -0.1 0.4
v 0.3 -0.1 0.3
v 0.3 -0.1 0
v 0.3 0 0.4
v 0.3 0 0.3
v 0.3 0.1 -0.1
v 0.3 0.1 -0.2
v 0.3 0.3 0.4
v 0.3 0.3 0.3
v 0.3 0.3 0
v 0.3 0.3 -0.1
v 0.3 0.3 -0.2
v 0.3 0.4 0.3
v 0.3 0.4 0
v 0.3 0.4 -0.1
v 0.3 0.4 -0.4
v 0.3 0.5 0
v 0.3 0.5 -0.4
v 0.4 -0.2 0
v 0.4 -0.2 -0.3
v 0.4 -0.1 0.3
v 0.4 -0.1 0
v 0.4 -0.1 -0.1
v 0.4 -0.1 -0.3
v 0.4 0 -0.1
v 0.4 0 -0.5
v 0.4 0.1 0.2
v 0.4 0.1 0.1
v 0.4 0.1 -0.1
v 0.4 0.1 -0.3
v 0.4 0.1 -0.5
v 0.4 0.2 0.2
v 0.4 0.2 0.1
v 0.4 0.2 -0.1
v 0.4 0.3 0.3
v 0.4 0.3 -0.1
v 0.5 0.1 0.1
v 0.5 0.1 -0.3
v 0.5 0.2 0.1
v 0.5 0.2 -0.3
v -0.2 -0.1 0.4
v -0.2 0.2 0.4
v -0.1 0.1 0.4
v -0.1 0.2 0.4
v -0.1 0.3 0.4
v 0 0.1 0.4
v 0 0.2 0.4
v 0.1 0.1 0.4
v 0.1 0.2 0.4
v 0.1 0.3 0.4
v 0.2 -0.1 0.4
v 0.2 0 0.4
v 0.3 -0.1 0.4
v 0.3 0 0.4
v 0.3 0.3 0.4
v -0.2 0.2 0.3
v -0.2 0.3 0.3
v -0.1 -0.2 0.3
v -0.1 -0.1 0.3
v -0.1 0.2 0.3
v -0.1 0.3 0.3
v -0.1 0.4 0.3
v 0.1 0.3 0.3
v 0.2 -0.1 0.3
v 0.3 -0.2 0.3
v 0.3 -0.1 0.3
v 0.3 0 0.3
v 0.3 0.3 0.3
v 0.3 0.4 0.3
v 0.4 -0.1 0.3
v 0.4 0.3 0.3
v 0.4 0.1 0.1
v 0.4 0.2 0.1
v 0.5 0.1 0.1
v 0.5 0.2 0.1
v -0.3 -0.1 0
v -0.3 0 0
v -0.3 0.2 0
v -0.3 0.3 0
v -0.2 -0.1 0
v -0.2 0 0
v -0.2 0.2 0
v -0.2 0.3 0
v 0.2 0.4 0
v 0.2 0.5 0
v 0.3 -0.2 0
v 0.3 -0.1 0
v 0.3 0.4 0
v 0.3 0.5 0
v 0.4 -0.2 0
v 0.4 -0.1 0
v -0.2 -0.1 -0.1
v -0.2 0 -0.1
v -0.2 0.2 -0.1
v -0.2 0.3 -0.1
v -0.1 -0.2 -0.1
v -0.1 -0.1 -0.1
v -0.1 0 -0.1
v -0.1 0.2 -0.1
v -0.1 0.3 -0.1
v 0 -0.2 -0.1
v 0 -0.1 -0.1
v 0 0.3 -0.1
v 0 0.4 -0.1
v 0.1 -0.2 -0.1
v 0.1 -0.1 -0.1
v 0.1 0 -0.1
v 0.1 0.3 -0.1
v 0.1 0.4 -0.1
v 0.2 -0.2 -0.1
v 0.2 -0.1 -0.1
v 0.2 0 -0.1
v 0.2 0.4 -0.1
v 0.3 -0.2 -0.1
v 0.3 -0.1 -0.1
v 0.3 0 -0.1
v 0.3 0.1 -0.1
v 0.3 0.3 -0.1
v 0.3 0.4 -0.1
v 0.4 -0.1 -0.1
v 0.4 0 -0.1
v 0.4 0.1 -0.1
v 0.4 0.2 -0.1
v 0.4 0.3 -0.1
v -0.2 0 -0.2
v -0.2 0.2 -0.2
v -0.1 -0.1 -0.2
v -0.1 0 -0.2
v -0.1 0.1 -0.2
v -0.1 0.2 -0.2
v -0.1 0.3 -0.2
v 0 -0.1 -0.2
v 0 0 -0.2
v 0 0.1 -0.2
v 0 0.2 -0.2
v 0 0.3 -0.2
v 0.1 0 -0.2
v 0.1 0.1 -0.2
v 0.1 0.2 -0.2
v 0.1 0.3 -0.2
v 0.2 0 -0.2
v 0.2 0.1 -0.2
v 0.2 0.2 -0.2
v 0.2 0.3 -0.2
v 0.3 0 -0.2
v 0.3 0.1 -0.2
v 0.3 0.3 -0.2
v 0.3 -0.2 -0.3
v 0.3 -0.1 -0.3
v 0.4 -0.2 -0.3
v 0.4 -0.1 -0.3
v 0.4 0.1 -0.3
v 0.4 0.2 -0.3
v 0.5 0.1 -0.3
v 0.5 0.2 -0.3
v -0.3 -0.1 -0.4
v -0.3 0 -0.4
v -0.3 0.2 -0.4
v -0.3 0.3 -0.4
v -0.2 -0.1 -0.4
v -0.2 0 -0.4
v -0.2 0.2 -0.4
v -0.2 0.3 -0.4
v -0.1 0.3 -0.4
v -0.1 0.4 -0.4
v 0 -0.2 -0.4
v 0 -0.1 -0.4
v 0 0.3 -0.4
v 0 0.4 -0.4
v 0.1 -0.2 -0.4
v 0.1 -0.1 -0.4
v 0.2 0.4 -0.4
v 0.2 0.5 -0.4
v 0.3 0.4 -0.4
v 0.3 0.5 -0.4
v -0.1 0.1 -0.5
v -0.1 0.2 -0.5
v 0 -0.1 -0.5
v 0 0 -0.5
v 0 0.1 -0.5
v 0 0.2 -0.5
v 0.1 -0.1 -0.5
v 0.1 0 -0.5
v 0.1 0.2 -0.5
v 0.1 0.3 -0.5
v 0.2 0.2 -0.5
v 0.2 0.3 -0.5
v 0.3 0 -0.5
v 0.3 0.1 -0.5
v 0.4 0 -0.5
v 0.4 0.1 -0.5
v -0.1 -0.2 0.3
v 0.3 -0.2 0.3
v 0.2 -0.2 0
v 0.3 -0.2 0
v 0.4 -0.2 0
v -0.1 -0.2 -0.1
v 0 -0.2 -0.1
v 0.1 -0.2 -0.1
v 0.2 -0.2 -0.1
v 0.3 -0.2 -0.1
v 0.3 -0.2 -0.3
v 0.4 -0.2 -0.3
v 0 -0.2 -0.4
v 0.1 -0.2 -0.4
v -0.2 -0.1 0.4
v 0.2 -0.1 0.4
v 0.3 -0.1 0.4
v -0.1 -0.1 0.3
v 0.2 -0.1 0.3
v 0.3 -0.1 0.3
v 0.4 -0.1 0.3
v -0.3 -0.1 0
v -0.2 -0.1 0
v 0.3 -0.1 0
v 0.4 -0.1 0
v -0.2 -0.1 -0.1
v -0.1 -0.1 -0.1
v 0 -0.1 -0.1
v -0.1 -0.1 -0.2
v 0 -0.1 -0.2
v -0.3 -0.1 -0.4
v -0.2 -0.1 -0.4
v 0 -0.1 -0.4
v 0.1 -0.1 -0.4
v 0 -0.1 -0.5
v 0.1 -0.1 -0.5
v -0.2 0 -0.1
v -0.1 0 -0.1
v 0.1 0 -0.1
v 0.2 0 -0.1
v 0.3 0 -0.1
v 0.4 0 -0.1
v -0.2 0 -0.2
v -0.1 0 -0.2
v 0.1 0 -0.2
v 0.2 0 -0.2
v 0.3 0 -0.2
v 0.3 0 -0.5
v 0.4 0 -0.5
v 0.4 0.1 0.1
v 0.5 0.1 0.1
v 0.4 0.1 -0.1
v -0.1 0.1 -0.2
v 0 0.1 -0.2
v 0.4 0.1 -0.3
v 0.5 0.1 -0.3
v -0.1 0.1 -0.5
v 0 0.1 -0.5
v -0.3 0.2 0
v -0.2 0.2 0
v -0.2 0.2 -0.2
v 0.1 0.2 -0.2
v 0.2 0.2 -0.2
v -0.3 0.2 -0.4
v -0.2 0.2 -0.4
v 0.1 0.2 -0.5
v 0.2 0.2 -0.5
v -0.1 0.3 -0.2
v 0 0.3 -0.2
v -0.1 0.3 -0.4
v 0 0.3 -0.4
v 0.2 0.4 -0.1
v 0.3 0.4 -0.1
v 0.2 0.4 -0.4
v 0.3 0.4 -0.4
v 0.3 -0.1 -0.1
v 0.4 -0.1 -0.1
v 0.3 -0.1 -0.3
v 0.4 -0.1 -0.3
v -0.3 0 0
v -0.2 0 0
v -0.2 0 -0.2
v 0 0 -0.2
v 0.1 0 -0.2
v -0.3 0 -0.4
v -0.2 0 -0.4
v 0 0 -0.5
v 0.1 0 -0.5
v 0.3 0.1 -0.1
v 0.4 0.1 -0.1
v 0.3 0.1 -0.2
v 0.4 0.1 -0.3
v 0.3 0.1 -0.5
v 0.4 0.1 -0.5
v -0.2 0.2 0.4
v -0.1 0.2 0.4
v -0.2 0.2 0.3
v -0.1 0.2 0.3
v 0.4 0.2 0.1
v 0.5 0.2 0.1
v -0.2 0.2 -0.1
v -0.1 0.2 -0.1
v 0.4 0.2 -0.1
v -0.2 0.2 -0.2
v -0.1 0.2 -0.2
v 0 0.2 -0.2
v 0.4 0.2 -0.3
v 0.5 0.2 -0.3
v -0.1 0.2 -0.5
v 0 0.2 -0.5
v -0.1 0.3 0.4
v 0.1 0.3 0.4
v 0.3 0.3 0.4
v -0.2 0.3 0.3
v -0.1 0.3 0.3
v 0.1 0.3 0.3
v 0.3 0.3 0.3
v 0.4 0.3 0.3
v -0.2 0.3 0.2
v -0.1 0.3 0.2
v -0.2 0.3 0.1
v -0.1 0.3 0.1
v -0.3 0.3 0
v -0.2 0.3 0
v -0.1 0.3 0
v 0.3 0.3 0
v -0.2 0.3 -0.1
v -0.1 0.3 -0.1
v 0 0.3 -0.1
v 0.1 0.3 -0.1
v 0.3 0.3 -0.1
v 0.4 0.3 -0.1
v 0 0.3 -0.2
v 0.1 0.3 -0.2
v 0.2 0.3 -0.2
v 0.3 0.3 -0.2
v -0.3 0.3 -0.4
v -0.2 0.3 -0.4
v 0.1 0.3 -0.5
v 0.2 0.3 -0.5
v -0.1 0.4 0.3
v 0.3 0.4 0.3
v 0 0.4 0.2
v 0.1 0.4 0.2
v 0 0.4 0.1
v 0.1 0.4 0.1
v 0.1 0.4 0
v 0.2 0.4 0
v 0.3 0.4 0
v -0.1 0.4 -0.1
v 0 0.4 -0.1
v 0.1 0.4 -0.1
v 0.2 0.4 -0.1
v -0.1 0.4 -0.4
v 0 0.4 -0.4
v 0.2 0.5 0
v 0.3 0.5 0
v 0.2 0.5 -0.4
v 0.3 0.5 -0.4

# faces
f 3/1/1 2/1/1 1/1/1
f 4/1/1 2/1/1 3/1/1
f 7/2/1 6/2/1 5/2/1
f 8/2/1 6/2/1 7/2/1
f 11/5/1 10/5/1 9/5/1
f 12/5/1 10/5/1 11/5/1
f 13/5/1 10/5/1 12/5/1
f 15/5/1 11/5/1 9/5/1
f 15/4/1 12/4/1 11/4/1
f 16/5/1 14/5/1 13/5/1
f 16/4/1 12/4/1 15/4/1
f 16/5/1 13/5/1 12/5/1
f 17/5/1 15/5/1 9/5/1
f 17/5/1 16/5/1 15/5/1
f 18/5/1 16/5/1 17/5/1
f 19/5/1 14/5/1 16/5/1
f 19/5/1 16/5/1 18/5/1
f 20/5/1 14/5/1 19/5/1
f 21/5/1 14/5/1 20/5/1
f 22/5/1 14/5/1 21/5/1
f 23/5/1 19/5/1 18/5/1
f 24/4/1 20/4/1 19/4/1
f 24/5/1 19/5/1 23/5/1
f 25/5/1 21/5/1 20/5/1
f 25/4/1 20/4/1 24/4/1
f 26/5/1 21/5/1 25/5/1
f 29/5/1 28/5/1 27/5/1
f 30/5/1 28/5/1 29/5/1
f 32/4/1 31/4/1 30/4/1
f 33/4/1 31/4/1 32/4/1
f 39/1/1 35/1/1 34/1/1
f 40/1/1 35/1/1 39/1/1
f 41/6/1 37/6/1 36/6/1
f 42/6/1 37/6/1 41/6/1
f 46/5/1 39/5/1 38/5/1
f 47/5/1 39/5/1 46/5/1
f 49/5/1 45/5/1 44/5/1
f 49/5/1 43/5/1 42/5/1
f 49/5/1 46/5/1 45/5/1
f 49/5/1 44/5/1 43/5/1
f 50/1/1 48/1/1 47/1/1
f 50/5/1 46/5/1 49/5/1
f 50/1/1 47/1/1 46/1/1
f 51/1/1 48/1/1 50/1/1
f 54/1/1 53/1/1 52/1/1
f 55/1/1 53/1/1 54/1/1
f 56/1/1 53/1/1 55/1/1
f 58/2/1 57/2/1 56/2/1
f 58/2/1 56/2/1 55/2/1
f 59/2/1 57/2/1 58/2/1
f 62/2/1 61/2/1 60/2/1
f 63/2/1 61/2/1 62/2/1
f 67/1/1 65/1/1 64/1/1
f 67/1/1 66/1/1 65/1/1
f 68/1/1 66/1/1 67/1/1
f 71/1/1 70/1/1 69/1/1
f 72/1/1 70/1/1 71/1/1
f 75/1/1 74/1/1 73/1/1
f 76/1/1 74/1/1 75/1/1
f 79/2/1 78/2/1 77/2/1
f 80/2/1 78/2/1 79/2/1
f 81/1/2 82/1/2 83/1/2
f 83/1/2 82/1/2 84/1/2
f 84/1/2 82/1/2 85/1/2
f 86/2/2 87/2/2 89/2/2
f 87/2/2 88/2/2 89/2/2
f 89/2/2 88/2/2 90/2/2
f 91/1/2 92/1/2 93/1/2
f 93/1/2 92/1/2 94/1/2
f 95/1/2 96/1/2 98/1/2
f 96/1/2 97/1/2 98/1/2
f 98/1/2 97/1/2 99/1/2
f 100/1/2 101/1/2 102/1/2
f 102/1/2 101/1/2 103/1/2
f 102/2/2 103/2/2 105/2/2
f 103/2/2 104/2/2 105/2/2
f 105/2/2 104/2/2 106/2/2
f 106/2/2 104/2/2 107/2/2
f 108/2/2 109/2/2 110/2/2
f 110/2/2 109/2/2 111/2/2
f 112/5/2 113/5/2 115/5/2
f 115/5/2 113/5/2 116/5/2
f 114/4/2 115/4/2 117/4/2
f 117/4/2 115/4/2 118/4/2
f 117/5/2 118/5/2 121/5/2
f 121/5/2 118/5/2 122/5/2
f 119/5/2 120/5/2 124/5/2
f 124/5/2 120/5/2 125/5/2
f 122/5/2 123/5/2 126/5/2
f 123/4/2 124/4/2 127/4/2
f 126/5/2 123/5/2 127/5/2
f 127/4/2 124/4/2 128/4/2
f 127/1/2 128/1/2 130/1/2
f 128/1/2 129/1/2 130/1/2
f 130/1/2 129/1/2 131/1/2
f 132/1/2 133/1/2 135/1/2
f 135/1/2 133/1/2 136/1/2
f 136/1/2 133/1/2 137/1/2
f 134/5/2 135/5/2 138/5/2
f 135/5/2 136/5/2 138/5/2
f 134/5/2 138/5/2 140/5/2
f 140/5/2 138/5/2 141/5/2
f 138/1/2 139/1/2 142/1/2
f 141/5/2 138/5/2 142/5/2
f 142/1/2 139/1/2 143/1/2
f 143/1/2 139/1/2 144/1/2
f 140/4/2 141/4/2 145/4/2
f 134/5/2 140/5/2 145/5/2
f 145/4/2 141/4/2 146/4/2
f 134/5/2 145/5/2 148/5/2
f 146/5/2 147/5/2 148/5/2
f 145/5/2 146/5/2 148/5/2
f 148/5/2 147/5/2 149/5/2
f 150/2/2 151/2/2 152/2/2
f 152/2/2 151/2/2 153/2/2
f 156/5/3 155/5/3 154/5/3
f 157/5/3 155/5/3 156/5/3
f 159/5/3 156/5/3 154/5/3
f 159/6/3 158/6/3 157/6/3
f 159/6/3 157/6/3 156/6/3
f 160/6/3 158/6/3 159/6/3
f 161/5/3 159/5/3 154/5/3
f 161/3/3 160/3/3 159/3/3
f 162/6/3 158/6/3 160/6/3
f 162/3/3 160/3/3 161/3/3
f 163/6/3 158/6/3 162/6/3
f 164/5/3 161/5/3 154/5/3
f 164/5/3 162/5/3 161/5/3
f 164/5/3 163/5/3 162/5/3
f 165/5/3 163/5/3 164/5/3
f 166/4/3 165/4/3 164/4/3
f 167/5/3 163/5/3 165/5/3
f 167/4/3 165/4/3 166/4/3
f 168/5/3 163/5/3 167/5/3
f 173/5/3 170/5/3 169/5/3
f 174/5/3 170/5/3 173/5/3
f 176/5/3 175/5/3 174/5/3
f 177/5/3 172/5/3 171/5/3
f 178/5/3 177/5/3 171/5/3
f 179/5/3 177/5/3 178/5/3
f 181/5/3 175/5/3 176/5/3
f 182/5/3 175/5/3 181/5/3
f 183/5/3 180/5/3 179/5/3
f 183/5/3 181/5/3 180/5/3
f 184/5/3 181/5/3 183/5/3
f 187/2/3 186/2/3 185/2/3
f 188/2/3 186/2/3 187/2/3
f 193/1/3 190/1/3 189/1/3
f 194/1/3 190/1/3 193/1/3
f 195/2/3 192/2/3 191/2/3
f 196/2/3 192/2/3 195/2/3
f 201/1/3 198/1/3 197/1/3
f 202/1/3 198/1/3 201/1/3
f 203/1/3 200/1/3 199/1/3
f 204/1/3 200/1/3 203/1/3
f 205/5/4 206/5/4 210/5/4
f 210/5/4 206/5/4 211/5/4
f 207/4/4 208/4/4 212/4/4
f 212/4/4 208/4/4 213/4/4
f 209/5/4 210/5/4 214/5/4
f 214/5/4 210/5/4 215/5/4
f 216/5/4 217/5/4 221/5/4
f 221/5/4 217/5/4 222/5/4
f 219/5/4 220/5/4 223/5/4
f 218/5/4 219/5/4 223/5/4
f 223/5/4 220/5/4 224/5/4
f 224/5/4 220/5/4 225/5/4
f 221/4/4 222/4/4 226/4/4
f 223/4/4 224/4/4 227/4/4
f 224/5/4 225/5/4 228/5/4
f 227/4/4 224/4/4 228/4/4
f 228/5/4 225/5/4 229/5/4
f 221/4/4 226/4/4 231/4/4
f 231/4/4 226/4/4 232/4/4
f 228/5/4 229/5/4 233/5/4
f 233/5/4 229/5/4 234/5/4
f 230/5/4 231/5/4 235/5/4
f 235/5/4 231/5/4 236/5/4
f 236/5/4 231/5/4 237/5/4
f 238/5/4 239/5/4 241/5/4
f 241/5/4 239/5/4 242/5/4
f 242/5/4 239/5/4 243/5/4
f 240/4/4 241/4/4 245/4/4
f 241/5/4 242/5/4 246/5/4
f 245/4/4 241/4/4 246/4/4
f 246/5/4 242/5/4 247/5/4
f 243/5/4 244/5/4 248/5/4
f 248/5/4 244/5/4 249/5/4
f 246/5/4 247/5/4 250/5/4
f 248/5/4 249/5/4 250/5/4
f 247/5/4 248/5/4 250/5/4
f 250/5/4 249/5/4 251/5/4
f 251/5/4 249/5/4 252/5/4
f 252/5/4 249/5/4 253/5/4
f 250/4/4 251/4/4 254/4/4
f 251/5/4 252/5/4 255/5/4
f 254/4/4 251/4/4 255/4/4
f 255/5/4 252/5/4 256/5/4
f 254/5/4 255/5/4 258/5/4
f 256/5/4 257/5/4 258/5/4
f 255/5/4 256/5/4 258/5/4
f 258/5/4 257/5/4 259/5/4
f 259/5/4 257/5/4 260/5/4
f 261/1/4 262/1/4 263/1/4
f 263/1/4 262/1/4 264/1/4
f 265/2/4 266/2/4 267/2/4
f 267/2/4 266/2/4 268/2/4
f 269/1/4 270/1/4 273/1/4
f 273/1/4 270/1/4 274/1/4
f 271/2/4 272/2/4 275/2/4
f 275/2/4 272/2/4 276/2/4
f 277/1/4 278/1/4 281/1/4
f 281/1/4 278/1/4 282/1/4
f 279/1/4 280/1/4 283/1/4
f 283/1/4 280/1/4 284/1/4
f 285/1/4 286/1/4 287/1/4
f 287/1/4 286/1/4 288/1/4
f 289/1/4 290/1/4 293/1/4
f 293/1/4 290/1/4 294/1/4
f 291/2/4 292/2/4 295/2/4
f 295/2/4 292/2/4 296/2/4
f 297/2/4 298/2/4 299/2/4
f 299/2/4 298/2/4 300/2/4
f 301/1/4 302/1/4 303/1/4
f 303/1/4 302/1/4 304/1/4
f 307/5/5 306/5/5 305/5/5
f 308/5/5 306/5/5 307/5/5
f 310/5/5 307/5/5 305/5/5
f 311/5/5 307/5/5 310/5/5
f 312/5/5 307/5/5 311/5/5
f 313/4/5 308/4/5 307/4/5
f 313/5/5 307/5/5 312/5/5
f 314/1/5 309/1/5 308/1/5
f 314/4/5 308/4/5 313/4/5
f 315/1/5 309/1/5 314/1/5
f 316/1/5 309/1/5 315/1/5
f 317/1/5 312/1/5 311/1/5
f 318/1/5 312/1/5 317/1/5
f 322/5/5 320/5/5 319/5/5
f 323/4/5 321/4/5 320/4/5
f 323/5/5 320/5/5 322/5/5
f 324/4/5 321/4/5 323/4/5
f 327/5/5 322/5/5 319/5/5
f 328/5/5 325/5/5 324/5/5
f 329/5/5 325/5/5 328/5/5
f 330/1/5 327/1/5 326/1/5
f 330/5/5 322/5/5 327/5/5
f 331/5/5 322/5/5 330/5/5
f 333/4/5 332/4/5 331/4/5
f 334/4/5 332/4/5 333/4/5
f 335/1/5 330/1/5 326/1/5
f 336/1/5 330/1/5 335/1/5
f 339/2/5 338/2/5 337/2/5
f 340/2/5 338/2/5 339/2/5
f 347/5/5 342/5/5 341/5/5
f 348/5/5 342/5/5 347/5/5
f 349/4/5 344/4/5 343/4/5
f 350/5/5 345/5/5 344/5/5
f 350/4/5 344/4/5 349/4/5
f 351/1/5 346/1/5 345/1/5
f 351/5/5 345/5/5 350/5/5
f 352/1/5 346/1/5 351/1/5
f 353/1/5 346/1/5 352/1/5
f 356/2/5 355/2/5 354/2/5
f 359/2/5 355/2/5 356/2/5
f 360/2/5 355/2/5 359/2/5
f 361/1/5 358/1/5 357/1/5
f 362/1/5 358/1/5 361/1/5
f 365/2/5 364/2/5 363/2/5
f 368/2/5 365/2/5 363/2/5
f 369/2/5 365/2/5 368/2/5
f 370/2/5 367/2/5 366/2/5
f 371/2/5 367/2/5 370/2/5
f 374/1/5 373/1/5 372/1/5
f 375/1/5 373/1/5 374/1/5
f 378/1/5 377/1/5 376/1/5
f 379/1/5 377/1/5 378/1/5
f 380/1/6 381/1/6 382/1/6
f 382/1/6 381/1/6 383/1/6
f 384/1/6 385/1/6 386/1/6
f 384/1/6 386/1/6 389/1/6
f 389/1/6 386/1/6 390/1/6
f 387/2/6 388/2/6 391/2/6
f 391/2/6 388/2/6 392/2/6
f 393/1/6 394/1/6 395/1/6
f 395/1/6 394/1/6 396/1/6
f 395/1/6 396/1/6 397/1/6
f 397/1/6 396/1/6 398/1/6
f 399/5/6 400/5/6 401/5/6
f 401/5/6 400/5/6 402/5/6
f 403/2/6 404/2/6 407/2/6
f 405/5/6 406/5/6 408/5/6
f 408/5/6 406/5/6 409/5/6
f 407/2/6 404/2/6 411/2/6
f 411/2/6 404/2/6 412/2/6
f 409/1/6 410/1/6 413/1/6
f 413/1/6 410/1/6 414/1/6
f 415/6/6 416/6/6 419/6/6
f 416/5/6 417/5/6 420/5/6
f 419/6/6 416/6/6 420/6/6
f 420/5/6 417/5/6 421/5/6
f 418/5/6 419/5/6 423/5/6
f 423/5/6 419/5/6 424/5/6
f 423/4/6 424/4/6 425/4/6
f 425/4/6 424/4/6 426/4/6
f 425/5/6 426/5/6 428/5/6
f 428/5/6 426/5/6 429/5/6
f 421/5/6 422/5/6 430/5/6
f 428/4/6 429/4/6 431/4/6
f 427/2/6 428/2/6 431/2/6
f 431/4/6 429/4/6 432/4/6
f 430/5/6 422/5/6 435/5/6
f 435/5/6 422/5/6 436/5/6
f 433/5/6 434/5/6 437/5/6
f 434/5/6 435/5/6 437/5/6
f 437/5/6 435/5/6 438/5/6
f 438/5/6 435/5/6 439/5/6
f 439/5/6 435/5/6 440/5/6
f 427/2/6 431/2/6 441/2/6
f 441/2/6 431/2/6 442/2/6
f 438/2/6 439/2/6 443/2/6
f 443/2/6 439/2/6 444/2/6
f 445/5/6 446/5/6 447/5/6
f 447/5/6 446/5/6 448/5/6
f 445/5/6 447/5/6 449/5/6
f 447/4/6 448/4/6 449/4/6
f 448/5/6 446/5/6 450/5/6
f 449/4/6 448/4/6 450/4/6
f 449/5/6 450/5/6 451/5/6
f 450/5/6 446/5/6 451/5/6
f 451/5/6 446/5/6 452/5/6
f 452/5/6 446/5/6 453/5/6
f 445/5/6 449/5/6 454/5/6
f 449/5/6 451/5/6 454/5/6
f 454/5/6 451/5/6 455/5/6
f 451/4/6 452/4/6 456/4/6
f 455/5/6 451/5/6 456/5/6
f 456/4/6 452/4/6 457/4/6
f 454/1/6 455/1/6 458/1/6
f 458/1/6 455/1/6 459/1/6
f 460/1/6 461/1/6 462/1/6
f 462/1/6 461/1/6 463/1/6
