# MagicaVoxel @ Ephtracy

# group
o 

# material
mtllib minotaur.vox.mtl
usemtl palette

# normals
vn -1 0 0
vn 1 0 0
vn 0 0 1
vn 0 0 -1
vn 0 -1 0
vn 0 1 0

# texcoords
vt 0.0449219 0.5
vt 0.341797 0.5
vt 0.537109 0.5
vt 0.869141 0.5
vt 0.966797 0.5
vt 0.994141 0.5

# verts
v -0.6 -0.5 0.1
v -0.6 -0.5 -0.1
v -0.6 -0.4 0.1
v -0.6 -0.4 -0.1
v -0.6 -0.3 0.1
v -0.6 -0.3 -0.1
v -0.6 -0.2 0.1
v -0.6 -0.2 -0.1
v -0.6 -0.1 0.1
v -0.6 -0.1 -0.1
v -0.5 0.4 0.1
v -0.5 0.4 -0.1
v -0.5 0.8 0.1
v -0.5 0.8 -0.1
v -0.4 0 0.2
v -0.4 0 -0.3
v -0.4 0.4 0.1
v -0.4 0.4 -0.1
v -0.4 0.5 0.2
v -0.4 0.5 0.1
v -0.4 0.5 -0.1
v -0.4 0.5 -0.3
v -0.3 -0.8 0.1
v -0.3 -0.8 -0.1
v -0.3 -0.7 0.1
v -0.3 -0.7 -0.1
v -0.3 -0.5 0.1
v -0.3 -0.5 -0.1
v -0.3 -0.4 0.1
v -0.3 -0.4 -0.1
v -0.3 -0.2 0
v -0.3 -0.2 -0.1
v -0.3 -0.1 0.2
v -0.3 -0.1 0.1
v -0.3 -0.1 0
v -0.3 -0.1 -0.1
v -0.3 0 0.3
v -0.3 0 0.2
v -0.3 0 -0.1
v -0.3 0.3 0.3
v -0.3 0.3 0.2
v -0.3 0.4 0.3
v -0.3 0.4 0.2
v -0.2 -0.1 0.3
v -0.2 -0.1 0.2
v -0.2 -0.1 -0.1
v -0.2 -0.1 -0.2
v -0.2 0 0.4
v -0.2 0 0.3
v -0.2 0 0.2
v -0.2 0 -0.1
v -0.2 0 -0.2
v -0.2 0.3 0.4
v -0.2 0.3 0.3
v -0.1 0.1 0.5
v -0.1 0.1 0.4
v -0.1 0.2 0.5
v -0.1 0.2 0.4
v 0.1 -0.8 0.1
v 0.1 -0.8 -0.1
v 0.1 -0.7 0.1
v 0.1 -0.7 -0.1
v 0.1 -0.5 0.1
v 0.1 -0.5 -0.1
v 0.2 0.5 0.1
v 0.2 0.5 -0.1
v 0.2 0.6 0.1
v 0.2 0.6 -0.1
v 0.3 0.6 0.1
v 0.3 0.6 -0.1
v 0.3 0.7 0.1
v 0.3 0.7 -0.1
v 0.4 -0.5 0.1
v 0.4 -0.5 -0.1
v 0.4 -0.3 0.1
v 0.4 -0.3 -0.1
v 0.4 -0.2 0.1
v 0.4 -0.2 0
v 0.4 -0.2 -0.1
v 0.4 -0.1 0.1
v 0.4 -0.1 0
v 0.4 0.7 0.1
v 0.4 0.7 -0.1
v 0.4 0.8 0.1
v 0.4 0.8 -0.1
v -0.4 -0.5 0.1
v -0.4 -0.5 -0.1
v -0.4 -0.3 0.1
v -0.4 -0.3 -0.1
v -0.4 -0.2 0.1
v -0.4 -0.2 0
v -0.4 -0.2 -0.1
v -0.4 -0.1 0.1
v -0.4 -0.1 0
v -0.4 0.7 0.1
v -0.4 0.7 -0.1
v -0.4 0.8 0.1
v -0.4 0.8 -0.1
v -0.3 0.6 0.1
v -0.3 0.6 -0.1
v -0.3 0.7 0.1
v -0.3 0.7 -0.1
v -0.2 0.5 0.1
v -0.2 0.5 -0.1
v -0.2 0.6 0.1
v -0.2 0.6 -0.1
v -0.1 -0.8 0.1
v -0.1 -0.8 -0.1
v -0.1 -0.7 0.1
v -0.1 -0.7 -0.1
v -0.1 -0.5 0.1
v -0.1 -0.5 -0.1
v 0.1 0.1 0.5
v 0.1 0.1 0.4
v 0.1 0.2 0.5
v 0.1 0.2 0.4
v 0.2 -0.1 0.3
v 0.2 -0.1 0.2
v 0.2 -0.1 -0.1
v 0.2 -0.1 -0.2
v 0.2 0 0.4
v 0.2 0 0.3
v 0.2 0 0.2
v 0.2 0 -0.1
v 0.2 0 -0.2
v 0.2 0.3 0.4
v 0.2 0.3 0.3
v 0.3 -0.8 0.1
v 0.3 -0.8 -0.1
v 0.3 -0.7 0.1
v 0.3 -0.7 -0.1
v 0.3 -0.5 0.1
v 0.3 -0.5 -0.1
v 0.3 -0.4 0.1
v 0.3 -0.4 -0.1
v 0.3 -0.2 0
v 0.3 -0.2 -0.1
v 0.3 -0.1 0.2
v 0.3 -0.1 0.1
v 0.3 -0.1 0
v 0.3 -0.1 -0.1
v 0.3 0 0.3
v 0.3 0 0.2
v 0.3 0 -0.1
v 0.3 0.3 0.3
v 0.3 0.3 0.2
v 0.3 0.4 0.3
v 0.3 0.4 0.2
v 0.4 0 0.2
v 0.4 0 -0.3
v 0.4 0.4 0.1
v 0.4 0.4 -0.1
v 0.4 0.5 0.2
v 0.4 0.5 0.1
v 0.4 0.5 -0.1
v 0.4 0.5 -0.3
v 0.5 0.4 0.1
v 0.5 0.4 -0.1
v 0.5 0.8 0.1
v 0.5 0.8 -0.1
v 0.6 -0.5 0.1
v 0.6 -0.5 -0.1
v 0.6 -0.4 0.1
v 0.6 -0.4 -0.1
v 0.6 -0.3 0.1
v 0.6 -0.3 -0.1
v 0.6 -0.2 0.1
v 0.6 -0.2 -0.1
v 0.6 -0.1 0.1
v 0.6 -0.1 -0.1
v -0.1 0.1 0.5
v -0.1 0.2 0.5
v 0.1 0.1 0.5
v 0.1 0.2 0.5
v -0.2 0 0.4
v -0.2 0.3 0.4
v -0.1 0 0.4
v -0.1 0.1 0.4
v -0.1 0.2 0.4
v 0.1 0 0.4
v 0.1 0.1 0.4
v 0.1 0.2 0.4
v 0.2 0 0.4
v 0.2 0.3 0.4
v -0.3 0 0.3
v -0.3 0.3 0.3
v -0.3 0.4 0.3
v -0.2 -0.1 0.3
v -0.2 0 0.3
v -0.2 0.3 0.3
v -0.2 0.4 0.3
v -0.1 0 0.3
v 0.1 0 0.3
v 0.2 -0.1 0.3
v 0.2 0 0.3
v 0.2 0.3 0.3
v 0.2 0.4 0.3
v 0.3 0 0.3
v 0.3 0.3 0.3
v 0.3 0.4 0.3
v -0.4 0 0.2
v -0.4 0.5 0.2
v -0.3 -0.1 0.2
v -0.3 0 0.2
v -0.3 0.3 0.2
v -0.3 0.4 0.2
v -0.2 -0.1 0.2
v -0.2 0 0.2
v -0.2 0.4 0.2
v 0.2 -0.1 0.2
v 0.2 0 0.2
v 0.2 0.4 0.2
v 0.3 -0.1 0.2
v 0.3 0 0.2
v 0.3 0.3 0.2
v 0.3 0.4 0.2
v 0.4 0 0.2
v 0.4 0.5 0.2
v -0.6 -0.5 0.1
v -0.6 -0.4 0.1
v -0.6 -0.3 0.1
v -0.6 -0.2 0.1
v -0.6 -0.1 0.1
v -0.5 -0.5 0.1
v -0.5 -0.4 0.1
v -0.5 0.4 0.1
v -0.5 0.8 0.1
v -0.4 -0.5 0.1
v -0.4 -0.3 0.1
v -0.4 -0.2 0.1
v -0.4 -0.1 0.1
v -0.4 0.4 0.1
v -0.4 0.5 0.1
v -0.4 0.7 0.1
v -0.4 0.8 0.1
v -0.3 -0.8 0.1
v -0.3 -0.7 0.1
v -0.3 -0.5 0.1
v -0.3 -0.4 0.1
v -0.3 -0.1 0.1
v -0.3 0.6 0.1
v -0.3 0.7 0.1
v -0.2 0.5 0.1
v -0.2 0.6 0.1
v -0.1 -0.8 0.1
v -0.1 -0.7 0.1
v -0.1 -0.5 0.1
v 0.1 -0.8 0.1
v 0.1 -0.7 0.1
v 0.1 -0.5 0.1
v 0.2 0.5 0.1
v 0.2 0.6 0.1
v 0.3 -0.8 0.1
v 0.3 -0.7 0.1
v 0.3 -0.5 0.1
v 0.3 -0.4 0.1
v 0.3 -0.1 0.1
v 0.3 0.6 0.1
v 0.3 0.7 0.1
v 0.4 -0.5 0.1
v 0.4 -0.3 0.1
v 0.4 -0.2 0.1
v 0.4 -0.1 0.1
v 0.4 0.4 0.1
v 0.4 0.5 0.1
v 0.4 0.7 0.1
v 0.4 0.8 0.1
v 0.5 -0.5 0.1
v 0.5 -0.4 0.1
v 0.5 0.4 0.1
v 0.5 0.8 0.1
v 0.6 -0.5 0.1
v 0.6 -0.4 0.1
v 0.6 -0.3 0.1
v 0.6 -0.2 0.1
v 0.6 -0.1 0.1
v -0.4 -0.2 0
v -0.4 -0.1 0
v -0.3 -0.2 0
v -0.3 -0.1 0
v 0.3 -0.2 0
v 0.3 -0.1 0
v 0.4 -0.2 0
v 0.4 -0.1 0
v -0.6 -0.5 -0.1
v -0.6 -0.4 -0.1
v -0.6 -0.3 -0.1
v -0.6 -0.2 -0.1
v -0.6 -0.1 -0.1
v -0.5 -0.5 -0.1
v -0.5 -0.4 -0.1
v -0.5 0.4 -0.1
v -0.5 0.8 -0.1
v -0.4 -0.5 -0.1
v -0.4 -0.3 -0.1
v -0.4 -0.2 -0.1
v -0.4 0.4 -0.1
v -0.4 0.5 -0.1
v -0.4 0.7 -0.1
v -0.4 0.8 -0.1
v -0.3 -0.8 -0.1
v -0.3 -0.7 -0.1
v -0.3 -0.5 -0.1
v -0.3 -0.4 -0.1
v -0.3 -0.2 -0.1
v -0.3 -0.1 -0.1
v -0.3 0 -0.1
v -0.3 0.6 -0.1
v -0.3 0.7 -0.1
v -0.2 -0.1 -0.1
v -0.2 0 -0.1
v -0.2 0.5 -0.1
v -0.2 0.6 -0.1
v -0.1 -0.8 -0.1
v -0.1 -0.7 -0.1
v -0.1 -0.5 -0.1
v 0.1 -0.8 -0.1
v 0.1 -0.7 -0.1
v 0.1 -0.5 -0.1
v 0.2 -0.1 -0.1
v 0.2 0 -0.1
v 0.2 0.5 -0.1
v 0.2 0.6 -0.1
v 0.3 -0.8 -0.1
v 0.3 -0.7 -0.1
v 0.3 -0.5 -0.1
v 0.3 -0.4 -0.1
v 0.3 -0.2 -0.1
v 0.3 -0.1 -0.1
v 0.3 0 -0.1
v 0.3 0.6 -0.1
v 0.3 0.7 -0.1
v 0.4 -0.5 -0.1
v 0.4 -0.3 -0.1
v 0.4 -0.2 -0.1
v 0.4 0.4 -0.1
v 0.4 0.5 -0.1
v 0.4 0.7 -0.1
v 0.4 0.8 -0.1
v 0.5 -0.5 -0.1
v 0.5 -0.4 -0.1
v 0.5 0.4 -0.1
v 0.5 0.8 -0.1
v 0.6 -0.5 -0.1
v 0.6 -0.4 -0.1
v 0.6 -0.3 -0.1
v 0.6 -0.2 -0.1
v 0.6 -0.1 -0.1
v -0.2 -0.1 -0.2
v -0.2 0 -0.2
v 0.2 -0.1 -0.2
v 0.2 0 -0.2
v -0.4 0 -0.3
v -0.4 0.5 -0.3
v 0.4 0 -0.3
v 0.4 0.5 -0.3
v -0.3 -0.8 0.1
v -0.1 -0.8 0.1
v 0.1 -0.8 0.1
v 0.3 -0.8 0.1
v -0.3 -0.8 -0.1
v -0.1 -0.8 -0.1
v 0.1 -0.8 -0.1
v 0.3 -0.8 -0.1
v -0.6 -0.5 0.1
v -0.5 -0.5 0.1
v -0.4 -0.5 0.1
v -0.1 -0.5 0.1
v 0.1 -0.5 0.1
v 0.4 -0.5 0.1
v 0.5 -0.5 0.1
v 0.6 -0.5 0.1
v -0.6 -0.5 -0.1
v -0.5 -0.5 -0.1
v -0.4 -0.5 -0.1
v -0.1 -0.5 -0.1
v 0.1 -0.5 -0.1
v 0.4 -0.5 -0.1
v 0.5 -0.5 -0.1
v 0.6 -0.5 -0.1
v -0.4 -0.2 0
v -0.3 -0.2 0
v 0.3 -0.2 0
v 0.4 -0.2 0
v -0.4 -0.2 -0.1
v -0.3 -0.2 -0.1
v 0.3 -0.2 -0.1
v 0.4 -0.2 -0.1
v -0.2 -0.1 0.3
v 0.2 -0.1 0.3
v -0.3 -0.1 0.2
v -0.2 -0.1 0.2
v 0.2 -0.1 0.2
v 0.3 -0.1 0.2
v -0.3 -0.1 0.1
v 0.3 -0.1 0.1
v -0.2 -0.1 -0.1
v 0.2 -0.1 -0.1
v -0.2 -0.1 -0.2
v 0.2 -0.1 -0.2
v -0.2 0 0.4
v -0.1 0 0.4
v 0.1 0 0.4
v 0.2 0 0.4
v -0.3 0 0.3
v -0.2 0 0.3
v -0.1 0 0.3
v 0.1 0 0.3
v 0.2 0 0.3
v 0.3 0 0.3
v -0.4 0 0.2
v -0.3 0 0.2
v -0.2 0 0.2
v 0.2 0 0.2
v 0.3 0 0.2
v 0.4 0 0.2
v -0.3 0 -0.1
v -0.2 0 -0.1
v 0.2 0 -0.1
v 0.3 0 -0.1
v -0.2 0 -0.2
v 0.2 0 -0.2
v -0.4 0 -0.3
v 0.4 0 -0.3
v -0.1 0.1 0.5
v 0.1 0.1 0.5
v -0.1 0.1 0.4
v 0.1 0.1 0.4
v -0.5 0.4 0.1
v -0.4 0.4 0.1
v 0.4 0.4 0.1
v 0.5 0.4 0.1
v -0.5 0.4 -0.1
v -0.4 0.4 -0.1
v 0.4 0.4 -0.1
v 0.5 0.4 -0.1
v -0.6 -0.1 0.1
v -0.4 -0.1 0.1
v 0.4 -0.1 0.1
v 0.6 -0.1 0.1
v -0.4 -0.1 0
v -0.3 -0.1 0
v 0.3 -0.1 0
v 0.4 -0.1 0
v -0.6 -0.1 -0.1
v -0.3 -0.1 -0.1
v 0.3 -0.1 -0.1
v 0.6 -0.1 -0.1
v -0.1 0.2 0.5
v 0.1 0.2 0.5
v -0.1 0.2 0.4
v 0.1 0.2 0.4
v -0.2 0.3 0.4
v 0.2 0.3 0.4
v -0.2 0.3 0.3
v 0.2 0.3 0.3
v -0.3 0.4 0.3
v -0.2 0.4 0.3
v 0.2 0.4 0.3
v 0.3 0.4 0.3
v -0.3 0.4 0.2
v -0.2 0.4 0.2
v 0.2 0.4 0.2
v 0.3 0.4 0.2
v -0.4 0.5 0.2
v 0.4 0.5 0.2
v -0.4 0.5 0.1
v -0.2 0.5 0.1
v 0.2 0.5 0.1
v 0.4 0.5 0.1
v -0.4 0.5 -0.1
v -0.2 0.5 -0.1
v 0.2 0.5 -0.1
v 0.4 0.5 -0.1
v -0.4 0.5 -0.3
v 0.4 0.5 -0.3
v -0.3 0.6 0.1
v -0.2 0.6 0.1
v 0.2 0.6 0.1
v 0.3 0.6 0.1
v -0.3 0.6 -0.1
v -0.2 0.6 -0.1
v 0.2 0.6 -0.1
v 0.3 0.6 -0.1
v -0.4 0.7 0.1
v -0.3 0.7 0.1
v 0.3 0.7 0.1
v 0.4 0.7 0.1
v -0.4 0.7 -0.1
v -0.3 0.7 -0.1
v 0.3 0.7 -0.1
v 0.4 0.7 -0.1
v -0.5 0.8 0.1
v -0.4 0.8 0.1
v 0.4 0.8 0.1
v 0.5 0.8 0.1
v -0.5 0.8 -0.1
v -0.4 0.8 -0.1
v 0.4 0.8 -0.1
v 0.5 0.8 -0.1

# faces
f 3/6/1 2/6/1 1/6/1
f 4/6/1 2/6/1 3/6/1
f 5/3/1 4/3/1 3/3/1
f 6/3/1 4/3/1 5/3/1
f 7/1/1 6/1/1 5/1/1
f 8/1/1 6/1/1 7/1/1
f 9/3/1 8/3/1 7/3/1
f 10/3/1 8/3/1 9/3/1
f 13/5/1 12/5/1 11/5/1
f 14/5/1 12/5/1 13/5/1
f 17/3/1 16/3/1 15/3/1
f 18/3/1 16/3/1 17/3/1
f 19/3/1 17/3/1 15/3/1
f 20/3/1 17/3/1 19/3/1
f 21/3/1 16/3/1 18/3/1
f 22/3/1 16/3/1 21/3/1
f 25/6/1 24/6/1 23/6/1
f 26/6/1 24/6/1 25/6/1
f 27/3/1 26/3/1 25/3/1
f 28/3/1 26/3/1 27/3/1
f 29/6/1 28/6/1 27/6/1
f 30/6/1 28/6/1 29/6/1
f 31/3/1 30/3/1 29/3/1
f 32/3/1 30/3/1 31/3/1
f 34/3/1 31/3/1 29/3/1
f 35/3/1 31/3/1 34/3/1
f 38/3/1 34/3/1 33/3/1
f 38/3/1 36/3/1 35/3/1
f 38/3/1 35/3/1 34/3/1
f 39/3/1 36/3/1 38/3/1
f 40/3/1 38/3/1 37/3/1
f 41/3/1 38/3/1 40/3/1
f 42/6/1 41/6/1 40/6/1
f 43/6/1 41/6/1 42/6/1
f 49/3/1 45/3/1 44/3/1
f 50/3/1 45/3/1 49/3/1
f 51/3/1 47/3/1 46/3/1
f 52/3/1 47/3/1 51/3/1
f 53/3/1 49/3/1 48/3/1
f 54/3/1 49/3/1 53/3/1
f 57/2/1 56/2/1 55/2/1
f 58/2/1 56/2/1 57/2/1
f 61/6/1 60/6/1 59/6/1
f 62/6/1 60/6/1 61/6/1
f 63/3/1 62/3/1 61/3/1
f 64/3/1 62/3/1 63/3/1
f 67/5/1 66/5/1 65/5/1
f 68/5/1 66/5/1 67/5/1
f 71/5/1 70/5/1 69/5/1
f 72/5/1 70/5/1 71/5/1
f 75/3/1 74/3/1 73/3/1
f 76/3/1 74/3/1 75/3/1
f 77/1/1 76/1/1 75/1/1
f 78/1/1 76/1/1 77/1/1
f 79/1/1 76/1/1 78/1/1
f 80/3/1 78/3/1 77/3/1
f 81/3/1 78/3/1 80/3/1
f 84/5/1 83/5/1 82/5/1
f 85/5/1 83/5/1 84/5/1
f 86/3/2 87/3/2 88/3/2
f 88/3/2 87/3/2 89/3/2
f 88/1/2 89/1/2 90/1/2
f 90/1/2 89/1/2 91/1/2
f 91/1/2 89/1/2 92/1/2
f 90/3/2 91/3/2 93/3/2
f 93/3/2 91/3/2 94/3/2
f 95/5/2 96/5/2 97/5/2
f 97/5/2 96/5/2 98/5/2
f 99/5/2 100/5/2 101/5/2
f 101/5/2 100/5/2 102/5/2
f 103/5/2 104/5/2 105/5/2
f 105/5/2 104/5/2 106/5/2
f 107/6/2 108/6/2 109/6/2
f 109/6/2 108/6/2 110/6/2
f 109/3/2 110/3/2 111/3/2
f 111/3/2 110/3/2 112/3/2
f 113/2/2 114/2/2 115/2/2
f 115/2/2 114/2/2 116/2/2
f 117/3/2 118/3/2 122/3/2
f 122/3/2 118/3/2 123/3/2
f 119/3/2 120/3/2 124/3/2
f 124/3/2 120/3/2 125/3/2
f 121/3/2 122/3/2 126/3/2
f 126/3/2 122/3/2 127/3/2
f 128/6/2 129/6/2 130/6/2
f 130/6/2 129/6/2 131/6/2
f 130/3/2 131/3/2 132/3/2
f 132/3/2 131/3/2 133/3/2
f 132/6/2 133/6/2 134/6/2
f 134/6/2 133/6/2 135/6/2
f 134/3/2 135/3/2 136/3/2
f 136/3/2 135/3/2 137/3/2
f 134/3/2 136/3/2 139/3/2
f 139/3/2 136/3/2 140/3/2
f 138/3/2 139/3/2 143/3/2
f 140/3/2 141/3/2 143/3/2
f 139/3/2 140/3/2 143/3/2
f 143/3/2 141/3/2 144/3/2
f 142/3/2 143/3/2 145/3/2
f 145/3/2 143/3/2 146/3/2
f 145/6/2 146/6/2 147/6/2
f 147/6/2 146/6/2 148/6/2
f 149/3/2 150/3/2 151/3/2
f 151/3/2 150/3/2 152/3/2
f 149/3/2 151/3/2 153/3/2
f 153/3/2 151/3/2 154/3/2
f 152/3/2 150/3/2 155/3/2
f 155/3/2 150/3/2 156/3/2
f 157/5/2 158/5/2 159/5/2
f 159/5/2 158/5/2 160/5/2
f 161/6/2 162/6/2 163/6/2
f 163/6/2 162/6/2 164/6/2
f 163/3/2 164/3/2 165/3/2
f 165/3/2 164/3/2 166/3/2
f 165/1/2 166/1/2 167/1/2
f 167/1/2 166/1/2 168/1/2
f 167/3/2 168/3/2 169/3/2
f 169/3/2 168/3/2 170/3/2
f 173/2/3 172/2/3 171/2/3
f 174/2/3 172/2/3 173/2/3
f 177/3/3 176/3/3 175/3/3
f 178/3/3 176/3/3 177/3/3
f 179/3/3 176/3/3 178/3/3
f 180/4/3 178/4/3 177/4/3
f 181/4/3 178/4/3 180/4/3
f 182/3/3 176/3/3 179/3/3
f 183/3/3 181/3/3 180/3/3
f 183/3/3 182/3/3 181/3/3
f 184/3/3 176/3/3 182/3/3
f 184/3/3 182/3/3 183/3/3
f 189/3/3 186/3/3 185/3/3
f 190/6/3 187/6/3 186/6/3
f 190/3/3 186/3/3 189/3/3
f 191/6/3 187/6/3 190/6/3
f 192/3/3 189/3/3 188/3/3
f 193/3/3 192/3/3 188/3/3
f 194/3/3 193/3/3 188/3/3
f 195/3/3 193/3/3 194/3/3
f 196/3/3 191/3/3 190/3/3
f 197/3/3 191/3/3 196/3/3
f 198/3/3 196/3/3 195/3/3
f 199/6/3 197/6/3 196/6/3
f 199/3/3 196/3/3 198/3/3
f 200/6/3 197/6/3 199/6/3
f 204/3/3 202/3/3 201/3/3
f 205/3/3 202/3/3 204/3/3
f 206/3/3 202/3/3 205/3/3
f 207/3/3 204/3/3 203/3/3
f 208/3/3 204/3/3 207/3/3
f 209/3/3 202/3/3 206/3/3
f 212/3/3 202/3/3 209/3/3
f 213/3/3 211/3/3 210/3/3
f 214/3/3 211/3/3 213/3/3
f 216/3/3 202/3/3 212/3/3
f 217/3/3 215/3/3 214/3/3
f 217/3/3 216/3/3 215/3/3
f 218/3/3 202/3/3 216/3/3
f 218/3/3 216/3/3 217/3/3
f 224/6/3 220/6/3 219/6/3
f 225/3/3 221/3/3 220/3/3
f 225/6/3 220/6/3 224/6/3
f 228/3/3 225/3/3 224/3/3
f 229/1/3 222/1/3 221/1/3
f 229/3/3 225/3/3 228/3/3
f 229/3/3 221/3/3 225/3/3
f 230/3/3 223/3/3 222/3/3
f 230/1/3 222/1/3 229/1/3
f 231/3/3 223/3/3 230/3/3
f 232/5/3 227/5/3 226/5/3
f 233/5/3 227/5/3 232/5/3
f 234/5/3 227/5/3 233/5/3
f 235/5/3 227/5/3 234/5/3
f 241/5/3 234/5/3 233/5/3
f 242/5/3 234/5/3 241/5/3
f 243/5/3 241/5/3 233/5/3
f 244/5/3 241/5/3 243/5/3
f 245/6/3 237/6/3 236/6/3
f 246/3/3 238/3/3 237/3/3
f 246/6/3 237/6/3 245/6/3
f 247/6/3 239/6/3 238/6/3
f 247/3/3 238/3/3 246/3/3
f 250/6/3 239/6/3 247/6/3
f 253/6/3 249/6/3 248/6/3
f 254/3/3 250/3/3 249/3/3
f 254/6/3 249/6/3 253/6/3
f 255/6/3 239/6/3 250/6/3
f 255/3/3 250/3/3 254/3/3
f 256/3/3 240/3/3 239/3/3
f 256/6/3 239/6/3 255/6/3
f 257/3/3 240/3/3 256/3/3
f 258/5/3 252/5/3 251/5/3
f 265/5/3 259/5/3 258/5/3
f 265/5/3 258/5/3 251/5/3
f 266/5/3 259/5/3 265/5/3
f 268/3/3 261/3/3 260/3/3
f 269/3/3 261/3/3 268/3/3
f 270/5/3 266/5/3 265/5/3
f 270/5/3 267/5/3 266/5/3
f 270/5/3 265/5/3 264/5/3
f 271/5/3 267/5/3 270/5/3
f 272/6/3 269/6/3 268/6/3
f 273/3/3 261/3/3 269/3/3
f 273/6/3 269/6/3 272/6/3
f 274/1/3 262/1/3 261/1/3
f 274/3/3 261/3/3 273/3/3
f 275/3/3 263/3/3 262/3/3
f 275/1/3 262/1/3 274/1/3
f 276/3/3 263/3/3 275/3/3
f 279/3/3 278/3/3 277/3/3
f 280/3/3 278/3/3 279/3/3
f 283/3/3 282/3/3 281/3/3
f 284/3/3 282/3/3 283/3/3
f 285/6/4 286/6/4 290/6/4
f 286/3/4 287/3/4 291/3/4
f 290/6/4 286/6/4 291/6/4
f 290/3/4 291/3/4 294/3/4
f 287/1/4 288/1/4 295/1/4
f 294/3/4 291/3/4 295/3/4
f 291/3/4 287/3/4 295/3/4
f 288/3/4 289/3/4 296/3/4
f 295/1/4 288/1/4 296/1/4
f 292/5/4 293/5/4 297/5/4
f 297/5/4 293/5/4 298/5/4
f 298/5/4 293/5/4 299/5/4
f 299/5/4 293/5/4 300/5/4
f 296/3/4 289/3/4 305/3/4
f 305/3/4 289/3/4 306/3/4
f 298/5/4 299/5/4 308/5/4
f 308/5/4 299/5/4 309/5/4
f 306/3/4 307/3/4 310/3/4
f 304/3/4 305/3/4 310/3/4
f 305/3/4 306/3/4 310/3/4
f 310/3/4 307/3/4 311/3/4
f 298/5/4 308/5/4 312/5/4
f 312/5/4 308/5/4 313/5/4
f 301/6/4 302/6/4 314/6/4
f 302/3/4 303/3/4 315/3/4
f 314/6/4 302/6/4 315/6/4
f 303/6/4 304/6/4 316/6/4
f 315/3/4 303/3/4 316/3/4
f 316/6/4 304/6/4 319/6/4
f 304/3/4 310/3/4 320/3/4
f 317/6/4 318/6/4 324/6/4
f 318/3/4 319/3/4 325/3/4
f 324/6/4 318/6/4 325/6/4
f 319/6/4 304/6/4 326/6/4
f 325/3/4 319/3/4 326/3/4
f 304/3/4 320/3/4 327/3/4
f 326/6/4 304/6/4 327/6/4
f 320/3/4 321/3/4 327/3/4
f 327/3/4 321/3/4 328/3/4
f 328/3/4 321/3/4 329/3/4
f 329/3/4 321/3/4 330/3/4
f 322/5/4 323/5/4 331/5/4
f 328/3/4 329/3/4 335/3/4
f 331/5/4 332/5/4 337/5/4
f 322/5/4 331/5/4 337/5/4
f 337/5/4 332/5/4 338/5/4
f 333/3/4 334/3/4 340/3/4
f 340/3/4 334/3/4 341/3/4
f 337/5/4 338/5/4 342/5/4
f 338/5/4 339/5/4 342/5/4
f 336/5/4 337/5/4 342/5/4
f 342/5/4 339/5/4 343/5/4
f 340/6/4 341/6/4 344/6/4
f 341/3/4 334/3/4 345/3/4
f 344/6/4 341/6/4 345/6/4
f 334/1/4 335/1/4 346/1/4
f 345/3/4 334/3/4 346/3/4
f 335/3/4 329/3/4 347/3/4
f 346/1/4 335/1/4 347/1/4
f 347/3/4 329/3/4 348/3/4
f 349/3/4 350/3/4 351/3/4
f 351/3/4 350/3/4 352/3/4
f 353/3/4 354/3/4 355/3/4
f 355/3/4 354/3/4 356/3/4
f 361/6/5 358/6/5 357/6/5
f 362/6/5 358/6/5 361/6/5
f 363/6/5 360/6/5 359/6/5
f 364/6/5 360/6/5 363/6/5
f 373/6/5 366/6/5 365/6/5
f 374/3/5 367/3/5 366/3/5
f 374/6/5 366/6/5 373/6/5
f 375/3/5 367/3/5 374/3/5
f 376/6/5 369/6/5 368/6/5
f 377/6/5 369/6/5 376/6/5
f 378/3/5 371/3/5 370/3/5
f 379/6/5 372/6/5 371/6/5
f 379/3/5 371/3/5 378/3/5
f 380/6/5 372/6/5 379/6/5
f 385/3/5 382/3/5 381/3/5
f 386/3/5 382/3/5 385/3/5
f 387/3/5 384/3/5 383/3/5
f 388/3/5 384/3/5 387/3/5
f 392/3/5 390/3/5 389/3/5
f 393/3/5 390/3/5 392/3/5
f 395/3/5 392/3/5 391/3/5
f 395/3/5 394/3/5 393/3/5
f 395/3/5 393/3/5 392/3/5
f 396/3/5 394/3/5 395/3/5
f 399/3/5 398/3/5 397/3/5
f 400/3/5 398/3/5 399/3/5
f 406/3/5 402/3/5 401/3/5
f 407/4/5 403/4/5 402/4/5
f 407/3/5 402/3/5 406/3/5
f 408/3/5 404/3/5 403/3/5
f 408/4/5 403/4/5 407/4/5
f 409/3/5 404/3/5 408/3/5
f 412/3/5 406/3/5 405/3/5
f 413/3/5 406/3/5 412/3/5
f 414/3/5 410/3/5 409/3/5
f 415/3/5 410/3/5 414/3/5
f 417/3/5 412/3/5 411/3/5
f 420/3/5 416/3/5 415/3/5
f 421/3/5 418/3/5 417/3/5
f 422/3/5 420/3/5 419/3/5
f 423/3/5 421/3/5 417/3/5
f 423/3/5 422/3/5 421/3/5
f 423/3/5 417/3/5 411/3/5
f 424/3/5 420/3/5 422/3/5
f 424/3/5 422/3/5 423/3/5
f 424/3/5 416/3/5 420/3/5
f 427/2/5 426/2/5 425/2/5
f 428/2/5 426/2/5 427/2/5
f 433/5/5 430/5/5 429/5/5
f 434/5/5 430/5/5 433/5/5
f 435/5/5 432/5/5 431/5/5
f 436/5/5 432/5/5 435/5/5
f 437/3/6 438/3/6 441/3/6
f 439/3/6 440/3/6 444/3/6
f 441/3/6 442/3/6 445/3/6
f 437/3/6 441/3/6 445/3/6
f 445/3/6 442/3/6 446/3/6
f 443/3/6 444/3/6 447/3/6
f 444/3/6 440/3/6 448/3/6
f 447/3/6 444/3/6 448/3/6
f 449/2/6 450/2/6 451/2/6
f 451/2/6 450/2/6 452/2/6
f 453/3/6 454/3/6 455/3/6
f 455/3/6 454/3/6 456/3/6
f 457/6/6 458/6/6 461/6/6
f 458/3/6 459/3/6 462/3/6
f 461/6/6 458/6/6 462/6/6
f 459/6/6 460/6/6 463/6/6
f 462/3/6 459/3/6 463/3/6
f 463/6/6 460/6/6 464/6/6
f 465/3/6 466/3/6 467/3/6
f 467/3/6 466/3/6 468/3/6
f 468/3/6 466/3/6 469/3/6
f 469/3/6 466/3/6 470/3/6
f 468/3/6 469/3/6 472/3/6
f 472/3/6 469/3/6 473/3/6
f 471/3/6 472/3/6 475/3/6
f 473/3/6 474/3/6 475/3/6
f 472/3/6 473/3/6 475/3/6
f 475/3/6 474/3/6 476/3/6
f 477/5/6 478/5/6 481/5/6
f 481/5/6 478/5/6 482/5/6
f 479/5/6 480/5/6 483/5/6
f 483/5/6 480/5/6 484/5/6
f 485/5/6 486/5/6 489/5/6
f 489/5/6 486/5/6 490/5/6
f 487/5/6 488/5/6 491/5/6
f 491/5/6 488/5/6 492/5/6
f 493/5/6 494/5/6 497/5/6
f 497/5/6 494/5/6 498/5/6
f 495/5/6 496/5/6 499/5/6
f 499/5/6 496/5/6 500/5/6
