# MagicaVoxel @ Ephtracy

# group
o 

# material
mtllib endroom.mtl
usemtl palette

# normals
vn -1 0 0
vn 1 0 0
vn 0 0 1
vn 0 0 -1
vn 0 -1 0
vn 0 1 0

# texcoords
vt 0.306641 0.5
vt 0.990234 0.5

# verts
v -6.4 0 4
v -6.4 0 2.4
v -6.4 0 0.8
v -6.4 0 -0.8
v -6.4 0 -2.4
v -6.4 0 -4
v -6.4 0.1 4
v -6.4 0.1 2.4
v -6.4 0.1 0.8
v -6.4 0.1 -0.8
v -6.4 0.1 -2.4
v -6.4 0.1 -4
v -6.4 3.2 4
v -6.4 3.2 -4
v 6.3 0.1 3.9
v 6.3 0.1 2.4
v 6.3 0.1 0.8
v 6.3 0.1 -0.8
v 6.3 0.1 -2.4
v 6.3 0.1 -3.9
v 6.3 3.2 3.9
v 6.3 3.2 0.8
v 6.3 3.2 -0.8
v 6.3 3.2 -3.9
v -6.3 0.1 3.9
v -6.3 0.1 2.4
v -6.3 0.1 0.8
v -6.3 0.1 -0.8
v -6.3 0.1 -2.4
v -6.3 0.1 -3.9
v -6.3 3.2 3.9
v -6.3 3.2 -3.9
v 6.4 0 4
v 6.4 0 2.4
v 6.4 0 0.8
v 6.4 0 -0.8
v 6.4 0 -2.4
v 6.4 0 -4
v 6.4 0.1 2.4
v 6.4 0.1 0.8
v 6.4 0.1 -0.8
v 6.4 0.1 -2.4
v 6.4 3.2 4
v 6.4 3.2 0.8
v 6.4 3.2 -0.8
v 6.4 3.2 -4
v -6.4 0 4
v -6.4 0.1 4
v -6.4 3.2 4
v -4.8 0 4
v -4.8 0.1 4
v -3.2 0 4
v -3.2 0.1 4
v -1.6 0 4
v -1.6 0.1 4
v 0 0 4
v 0 0.1 4
v 1.6 0 4
v 1.6 0.1 4
v 3.2 0 4
v 3.2 0.1 4
v 4.8 0 4
v 4.8 0.1 4
v 6.4 0 4
v 6.4 3.2 4
v 6.3 0.1 -0.8
v 6.3 3.2 -0.8
v 6.4 0.1 -0.8
v 6.4 3.2 -0.8
v -6.3 0.1 -3.9
v -6.3 3.2 -3.9
v -4.8 0.1 -3.9
v -3.2 0.1 -3.9
v -1.6 0.1 -3.9
v 0 0.1 -3.9
v 1.6 0.1 -3.9
v 3.2 0.1 -3.9
v 4.8 0.1 -3.9
v 6.3 0.1 -3.9
v 6.3 3.2 -3.9
v -6.3 0.1 3.9
v -6.3 3.2 3.9
v -4.8 0.1 3.9
v -3.2 0.1 3.9
v -1.6 0.1 3.9
v 0 0.1 3.9
v 1.6 0.1 3.9
v 3.2 0.1 3.9
v 4.8 0.1 3.9
v 6.3 0.1 3.9
v 6.3 3.2 3.9
v 6.3 0.1 0.8
v 6.3 3.2 0.8
v 6.4 0.1 0.8
v 6.4 3.2 0.8
v -6.4 0 -4
v -6.4 0.1 -4
v -6.4 3.2 -4
v -4.8 0 -4
v -4.8 0.1 -4
v -3.2 0 -4
v -3.2 0.1 -4
v -1.6 0 -4
v -1.6 0.1 -4
v 0 0 -4
v 0 0.1 -4
v 1.6 0 -4
v 1.6 0.1 -4
v 3.2 0 -4
v 3.2 0.1 -4
v 4.8 0 -4
v 4.8 0.1 -4
v 6.4 0 -4
v 6.4 3.2 -4
v -6.4 0 4
v -4.8 0 4
v -3.2 0 4
v -1.6 0 4
v 0 0 4
v 1.6 0 4
v 3.2 0 4
v 4.8 0 4
v 6.4 0 4
v -6.4 0 2.4
v -4.8 0 2.4
v -3.2 0 2.4
v -1.6 0 2.4
v 0 0 2.4
v 1.6 0 2.4
v 3.2 0 2.4
v 4.8 0 2.4
v 6.4 0 2.4
v -6.4 0 0.8
v -4.8 0 0.8
v -3.2 0 0.8
v -1.6 0 0.8
v 0 0 0.8
v 1.6 0 0.8
v 3.2 0 0.8
v 4.8 0 0.8
v 6.4 0 0.8
v -6.4 0 -0.8
v -4.8 0 -0.8
v -3.2 0 -0.8
v -1.6 0 -0.8
v 0 0 -0.8
v 1.6 0 -0.8
v 3.2 0 -0.8
v 4.8 0 -0.8
v 6.4 0 -0.8
v -6.4 0 -2.4
v -4.8 0 -2.4
v -3.2 0 -2.4
v -1.6 0 -2.4
v 0 0 -2.4
v 1.6 0 -2.4
v 3.2 0 -2.4
v 4.8 0 -2.4
v 6.4 0 -2.4
v -6.4 0 -4
v -4.8 0 -4
v -3.2 0 -4
v -1.6 0 -4
v 0 0 -4
v 1.6 0 -4
v 3.2 0 -4
v 4.8 0 -4
v 6.4 0 -4
v -6.3 0.1 3.9
v -4.8 0.1 3.9
v -3.2 0.1 3.9
v -1.6 0.1 3.9
v 0 0.1 3.9
v 1.6 0.1 3.9
v 3.2 0.1 3.9
v 4.8 0.1 3.9
v 6.3 0.1 3.9
v -6.3 0.1 2.4
v -4.8 0.1 2.4
v -3.2 0.1 2.4
v -1.6 0.1 2.4
v 0 0.1 2.4
v 1.6 0.1 2.4
v 3.2 0.1 2.4
v 4.8 0.1 2.4
v 6.3 0.1 2.4
v -6.3 0.1 0.8
v -4.8 0.1 0.8
v -3.2 0.1 0.8
v -1.6 0.1 0.8
v 0 0.1 0.8
v 1.6 0.1 0.8
v 3.2 0.1 0.8
v 4.8 0.1 0.8
v 6.3 0.1 0.8
v 6.4 0.1 0.8
v -6.3 0.1 -0.8
v -4.8 0.1 -0.8
v -3.2 0.1 -0.8
v -1.6 0.1 -0.8
v 0 0.1 -0.8
v 1.6 0.1 -0.8
v 3.2 0.1 -0.8
v 4.8 0.1 -0.8
v 6.3 0.1 -0.8
v 6.4 0.1 -0.8
v -6.3 0.1 -2.4
v -4.8 0.1 -2.4
v -3.2 0.1 -2.4
v -1.6 0.1 -2.4
v 0 0.1 -2.4
v 1.6 0.1 -2.4
v 3.2 0.1 -2.4
v 4.8 0.1 -2.4
v 6.3 0.1 -2.4
v -6.3 0.1 -3.9
v -4.8 0.1 -3.9
v -3.2 0.1 -3.9
v -1.6 0.1 -3.9
v 0 0.1 -3.9
v 1.6 0.1 -3.9
v 3.2 0.1 -3.9
v 4.8 0.1 -3.9
v 6.3 0.1 -3.9
v -6.4 3.2 4
v 6.4 3.2 4
v -6.3 3.2 3.9
v 6.3 3.2 3.9
v 6.3 3.2 0.8
v 6.4 3.2 0.8
v 6.3 3.2 -0.8
v 6.4 3.2 -0.8
v -6.3 3.2 -3.9
v 6.3 3.2 -3.9
v -6.4 3.2 -4
v 6.4 3.2 -4

# faces
f 7/2/1 2/2/1 1/2/1
f 8/1/1 3/1/1 2/1/1
f 8/2/1 2/2/1 7/2/1
f 9/2/1 4/2/1 3/2/1
f 9/1/1 3/1/1 8/1/1
f 10/1/1 5/1/1 4/1/1
f 10/2/1 4/2/1 9/2/1
f 11/2/1 6/2/1 5/2/1
f 11/1/1 5/1/1 10/1/1
f 12/2/1 6/2/1 11/2/1
f 13/1/1 10/1/1 9/1/1
f 13/1/1 8/1/1 7/1/1
f 13/1/1 12/1/1 11/1/1
f 13/1/1 11/1/1 10/1/1
f 13/1/1 9/1/1 8/1/1
f 14/1/1 12/1/1 13/1/1
f 21/1/1 16/1/1 15/1/1
f 21/1/1 17/1/1 16/1/1
f 22/1/1 17/1/1 21/1/1
f 23/1/1 20/1/1 19/1/1
f 23/1/1 19/1/1 18/1/1
f 24/1/1 20/1/1 23/1/1
f 25/1/2 26/1/2 31/1/2
f 29/1/2 30/1/2 31/1/2
f 28/1/2 29/1/2 31/1/2
f 27/1/2 28/1/2 31/1/2
f 26/1/2 27/1/2 31/1/2
f 31/1/2 30/1/2 32/1/2
f 33/1/2 34/1/2 39/1/2
f 34/2/2 35/2/2 39/2/2
f 35/1/2 36/1/2 40/1/2
f 39/2/2 35/2/2 40/2/2
f 36/2/2 37/2/2 41/2/2
f 40/1/2 36/1/2 41/1/2
f 37/1/2 38/1/2 42/1/2
f 41/2/2 37/2/2 42/2/2
f 39/1/2 40/1/2 43/1/2
f 33/1/2 39/1/2 43/1/2
f 43/1/2 40/1/2 44/1/2
f 41/1/2 42/1/2 45/1/2
f 42/1/2 38/1/2 46/1/2
f 45/1/2 42/1/2 46/1/2
f 50/2/3 48/2/3 47/2/3
f 51/1/3 49/1/3 48/1/3
f 51/2/3 48/2/3 50/2/3
f 52/1/3 51/1/3 50/1/3
f 53/1/3 49/1/3 51/1/3
f 53/1/3 51/1/3 52/1/3
f 54/2/3 53/2/3 52/2/3
f 55/1/3 49/1/3 53/1/3
f 55/2/3 53/2/3 54/2/3
f 56/1/3 55/1/3 54/1/3
f 57/1/3 49/1/3 55/1/3
f 57/1/3 55/1/3 56/1/3
f 58/2/3 57/2/3 56/2/3
f 59/1/3 49/1/3 57/1/3
f 59/2/3 57/2/3 58/2/3
f 60/1/3 59/1/3 58/1/3
f 61/1/3 49/1/3 59/1/3
f 61/1/3 59/1/3 60/1/3
f 62/2/3 61/2/3 60/2/3
f 63/1/3 49/1/3 61/1/3
f 63/2/3 61/2/3 62/2/3
f 64/1/3 63/1/3 62/1/3
f 65/1/3 49/1/3 63/1/3
f 65/1/3 63/1/3 64/1/3
f 68/1/3 67/1/3 66/1/3
f 69/1/3 67/1/3 68/1/3
f 72/1/3 71/1/3 70/1/3
f 73/1/3 71/1/3 72/1/3
f 74/1/3 71/1/3 73/1/3
f 75/1/3 71/1/3 74/1/3
f 76/1/3 71/1/3 75/1/3
f 77/1/3 71/1/3 76/1/3
f 78/1/3 71/1/3 77/1/3
f 79/1/3 71/1/3 78/1/3
f 80/1/3 71/1/3 79/1/3
f 81/1/4 82/1/4 83/1/4
f 83/1/4 82/1/4 84/1/4
f 84/1/4 82/1/4 85/1/4
f 85/1/4 82/1/4 86/1/4
f 86/1/4 82/1/4 87/1/4
f 87/1/4 82/1/4 88/1/4
f 88/1/4 82/1/4 89/1/4
f 89/1/4 82/1/4 90/1/4
f 90/1/4 82/1/4 91/1/4
f 92/1/4 93/1/4 94/1/4
f 94/1/4 93/1/4 95/1/4
f 96/2/4 97/2/4 99/2/4
f 97/1/4 98/1/4 100/1/4
f 99/2/4 97/2/4 100/2/4
f 99/1/4 100/1/4 101/1/4
f 100/1/4 98/1/4 102/1/4
f 101/1/4 100/1/4 102/1/4
f 101/2/4 102/2/4 103/2/4
f 102/1/4 98/1/4 104/1/4
f 103/2/4 102/2/4 104/2/4
f 103/1/4 104/1/4 105/1/4
f 104/1/4 98/1/4 106/1/4
f 105/1/4 104/1/4 106/1/4
f 105/2/4 106/2/4 107/2/4
f 106/1/4 98/1/4 108/1/4
f 107/2/4 106/2/4 108/2/4
f 107/1/4 108/1/4 109/1/4
f 108/1/4 98/1/4 110/1/4
f 109/1/4 108/1/4 110/1/4
f 109/2/4 110/2/4 111/2/4
f 110/1/4 98/1/4 112/1/4
f 111/2/4 110/2/4 112/2/4
f 111/1/4 112/1/4 113/1/4
f 112/1/4 98/1/4 114/1/4
f 113/1/4 112/1/4 114/1/4
f 124/2/5 116/2/5 115/2/5
f 125/1/5 117/1/5 116/1/5
f 125/2/5 116/2/5 124/2/5
f 126/2/5 118/2/5 117/2/5
f 126/1/5 117/1/5 125/1/5
f 127/1/5 119/1/5 118/1/5
f 127/2/5 118/2/5 126/2/5
f 128/2/5 120/2/5 119/2/5
f 128/1/5 119/1/5 127/1/5
f 129/1/5 121/1/5 120/1/5
f 129/2/5 120/2/5 128/2/5
f 130/2/5 122/2/5 121/2/5
f 130/1/5 121/1/5 129/1/5
f 131/1/5 123/1/5 122/1/5
f 131/2/5 122/2/5 130/2/5
f 132/1/5 123/1/5 131/1/5
f 133/1/5 125/1/5 124/1/5
f 134/2/5 126/2/5 125/2/5
f 134/1/5 125/1/5 133/1/5
f 135/1/5 127/1/5 126/1/5
f 135/2/5 126/2/5 134/2/5
f 136/2/5 128/2/5 127/2/5
f 136/1/5 127/1/5 135/1/5
f 137/1/5 129/1/5 128/1/5
f 137/2/5 128/2/5 136/2/5
f 138/2/5 130/2/5 129/2/5
f 138/1/5 129/1/5 137/1/5
f 139/1/5 131/1/5 130/1/5
f 139/2/5 130/2/5 138/2/5
f 140/2/5 132/2/5 131/2/5
f 140/1/5 131/1/5 139/1/5
f 141/2/5 132/2/5 140/2/5
f 142/2/5 134/2/5 133/2/5
f 143/1/5 135/1/5 134/1/5
f 143/2/5 134/2/5 142/2/5
f 144/2/5 136/2/5 135/2/5
f 144/1/5 135/1/5 143/1/5
f 145/1/5 137/1/5 136/1/5
f 145/2/5 136/2/5 144/2/5
f 146/2/5 138/2/5 137/2/5
f 146/1/5 137/1/5 145/1/5
f 147/1/5 139/1/5 138/1/5
f 147/2/5 138/2/5 146/2/5
f 148/2/5 140/2/5 139/2/5
f 148/1/5 139/1/5 147/1/5
f 149/1/5 141/1/5 140/1/5
f 149/2/5 140/2/5 148/2/5
f 150/1/5 141/1/5 149/1/5
f 151/1/5 143/1/5 142/1/5
f 152/2/5 144/2/5 143/2/5
f 152/1/5 143/1/5 151/1/5
f 153/1/5 145/1/5 144/1/5
f 153/2/5 144/2/5 152/2/5
f 154/2/5 146/2/5 145/2/5
f 154/1/5 145/1/5 153/1/5
f 155/1/5 147/1/5 146/1/5
f 155/2/5 146/2/5 154/2/5
f 156/2/5 148/2/5 147/2/5
f 156/1/5 147/1/5 155/1/5
f 157/1/5 149/1/5 148/1/5
f 157/2/5 148/2/5 156/2/5
f 158/2/5 150/2/5 149/2/5
f 158/1/5 149/1/5 157/1/5
f 159/2/5 150/2/5 158/2/5
f 160/2/5 152/2/5 151/2/5
f 161/1/5 153/1/5 152/1/5
f 161/2/5 152/2/5 160/2/5
f 162/2/5 154/2/5 153/2/5
f 162/1/5 153/1/5 161/1/5
f 163/1/5 155/1/5 154/1/5
f 163/2/5 154/2/5 162/2/5
f 164/2/5 156/2/5 155/2/5
f 164/1/5 155/1/5 163/1/5
f 165/1/5 157/1/5 156/1/5
f 165/2/5 156/2/5 164/2/5
f 166/2/5 158/2/5 157/2/5
f 166/1/5 157/1/5 165/1/5
f 167/1/5 159/1/5 158/1/5
f 167/2/5 158/2/5 166/2/5
f 168/1/5 159/1/5 167/1/5
f 169/2/6 170/2/6 178/2/6
f 170/1/6 171/1/6 179/1/6
f 178/2/6 170/2/6 179/2/6
f 171/2/6 172/2/6 180/2/6
f 179/1/6 171/1/6 180/1/6
f 172/1/6 173/1/6 181/1/6
f 180/2/6 172/2/6 181/2/6
f 173/2/6 174/2/6 182/2/6
f 181/1/6 173/1/6 182/1/6
f 174/1/6 175/1/6 183/1/6
f 182/2/6 174/2/6 183/2/6
f 175/2/6 176/2/6 184/2/6
f 183/1/6 175/1/6 184/1/6
f 176/1/6 177/1/6 185/1/6
f 184/2/6 176/2/6 185/2/6
f 185/1/6 177/1/6 186/1/6
f 178/1/6 179/1/6 187/1/6
f 179/2/6 180/2/6 188/2/6
f 187/1/6 179/1/6 188/1/6
f 180/1/6 181/1/6 189/1/6
f 188/2/6 180/2/6 189/2/6
f 181/2/6 182/2/6 190/2/6
f 189/1/6 181/1/6 190/1/6
f 182/1/6 183/1/6 191/1/6
f 190/2/6 182/2/6 191/2/6
f 183/2/6 184/2/6 192/2/6
f 191/1/6 183/1/6 192/1/6
f 184/1/6 185/1/6 193/1/6
f 192/2/6 184/2/6 193/2/6
f 185/2/6 186/2/6 194/2/6
f 193/1/6 185/1/6 194/1/6
f 194/2/6 186/2/6 195/2/6
f 187/2/6 188/2/6 197/2/6
f 188/1/6 189/1/6 198/1/6
f 197/2/6 188/2/6 198/2/6
f 189/2/6 190/2/6 199/2/6
f 198/1/6 189/1/6 199/1/6
f 190/1/6 191/1/6 200/1/6
f 199/2/6 190/2/6 200/2/6
f 191/2/6 192/2/6 201/2/6
f 200/1/6 191/1/6 201/1/6
f 192/1/6 193/1/6 202/1/6
f 201/2/6 192/2/6 202/2/6
f 193/2/6 194/2/6 203/2/6
f 202/1/6 193/1/6 203/1/6
f 194/1/6 195/1/6 204/1/6
f 203/2/6 194/2/6 204/2/6
f 195/1/6 196/1/6 204/1/6
f 204/1/6 196/1/6 205/1/6
f 205/1/6 196/1/6 206/1/6
f 197/1/6 198/1/6 207/1/6
f 198/2/6 199/2/6 208/2/6
f 207/1/6 198/1/6 208/1/6
f 199/1/6 200/1/6 209/1/6
f 208/2/6 199/2/6 209/2/6
f 200/2/6 201/2/6 210/2/6
f 209/1/6 200/1/6 210/1/6
f 201/1/6 202/1/6 211/1/6
f 210/2/6 201/2/6 211/2/6
f 202/2/6 203/2/6 212/2/6
f 211/1/6 202/1/6 212/1/6
f 203/1/6 204/1/6 213/1/6
f 212/2/6 203/2/6 213/2/6
f 204/2/6 205/2/6 214/2/6
f 213/1/6 204/1/6 214/1/6
f 214/2/6 205/2/6 215/2/6
f 207/2/6 208/2/6 216/2/6
f 208/1/6 209/1/6 217/1/6
f 216/2/6 208/2/6 217/2/6
f 209/2/6 210/2/6 218/2/6
f 217/1/6 209/1/6 218/1/6
f 210/1/6 211/1/6 219/1/6
f 218/2/6 210/2/6 219/2/6
f 211/2/6 212/2/6 220/2/6
f 219/1/6 211/1/6 220/1/6
f 212/1/6 213/1/6 221/1/6
f 220/2/6 212/2/6 221/2/6
f 213/2/6 214/2/6 222/2/6
f 221/1/6 213/1/6 222/1/6
f 214/1/6 215/1/6 223/1/6
f 222/2/6 214/2/6 223/2/6
f 223/1/6 215/1/6 224/1/6
f 225/1/6 226/1/6 227/1/6
f 227/1/6 226/1/6 228/1/6
f 228/1/6 226/1/6 229/1/6
f 229/1/6 226/1/6 230/1/6
f 225/1/6 227/1/6 233/1/6
f 231/1/6 232/1/6 234/1/6
f 225/1/6 233/1/6 235/1/6
f 233/1/6 234/1/6 235/1/6
f 234/1/6 232/1/6 236/1/6
f 235/1/6 234/1/6 236/1/6
