# MagicaVoxel @ Ephtracy

# group
o 

# material
mtllib gameroom.mtl
usemtl palette

# normals
vn -1 0 0
vn 1 0 0
vn 0 0 1
vn 0 0 -1
vn 0 -1 0
vn 0 1 0

# texcoords
vt 0.306641 0.5
vt 0.990234 0.5

# verts
v -6.4 0 4
v -6.4 0 2.4
v -6.4 0 0.8
v -6.4 0 -0.8
v -6.4 0 -2.4
v -6.4 0 -4
v -6.4 0.1 4
v -6.4 0.1 2.4
v -6.4 0.1 0.8
v -6.4 0.1 -0.8
v -6.4 0.1 -2.4
v -6.4 0.1 -4
v -6.4 3.2 4
v -6.4 3.2 0.8
v -6.4 3.2 -0.8
v -6.4 3.2 -4
v 6.3 0.1 3.9
v 6.3 0.1 2.4
v 6.3 0.1 0.8
v 6.3 0.1 -0.8
v 6.3 0.1 -2.4
v 6.3 0.1 -3.9
v 6.3 3.2 3.9
v 6.3 3.2 0.8
v 6.3 3.2 -0.8
v 6.3 3.2 -3.9
v -6.3 0.1 3.9
v -6.3 0.1 2.4
v -6.3 0.1 0.8
v -6.3 0.1 -0.8
v -6.3 0.1 -2.4
v -6.3 0.1 -3.9
v -6.3 3.2 3.9
v -6.3 3.2 0.8
v -6.3 3.2 -0.8
v -6.3 3.2 -3.9
v 6.4 0 4
v 6.4 0 2.4
v 6.4 0 0.8
v 6.4 0 -0.8
v 6.4 0 -2.4
v 6.4 0 -4
v 6.4 0.1 2.4
v 6.4 0.1 0.8
v 6.4 0.1 -0.8
v 6.4 0.1 -2.4
v 6.4 3.2 4
v 6.4 3.2 0.8
v 6.4 3.2 -0.8
v 6.4 3.2 -4
v -6.4 0 4
v -6.4 0.1 4
v -6.4 3.2 4
v -4.8 0 4
v -4.8 0.1 4
v -3.2 0 4
v -3.2 0.1 4
v -1.6 0 4
v -1.6 0.1 4
v 0 0 4
v 0 0.1 4
v 1.6 0 4
v 1.6 0.1 4
v 3.2 0 4
v 3.2 0.1 4
v 4.8 0 4
v 4.8 0.1 4
v 6.4 0 4
v 6.4 3.2 4
v -6.4 0.1 -0.8
v -6.4 3.2 -0.8
v -6.3 0.1 -0.8
v -6.3 3.2 -0.8
v 6.3 0.1 -0.8
v 6.3 3.2 -0.8
v 6.4 0.1 -0.8
v 6.4 3.2 -0.8
v -6.3 0.1 -3.9
v -6.3 3.2 -3.9
v -4.8 0.1 -3.9
v -3.2 0.1 -3.9
v -1.6 0.1 -3.9
v 0 0.1 -3.9
v 1.6 0.1 -3.9
v 3.2 0.1 -3.9
v 4.8 0.1 -3.9
v 6.3 0.1 -3.9
v 6.3 3.2 -3.9
v -6.3 0.1 3.9
v -6.3 3.2 3.9
v -4.8 0.1 3.9
v -3.2 0.1 3.9
v -1.6 0.1 3.9
v 0 0.1 3.9
v 1.6 0.1 3.9
v 3.2 0.1 3.9
v 4.8 0.1 3.9
v 6.3 0.1 3.9
v 6.3 3.2 3.9
v -6.4 0.1 0.8
v -6.4 3.2 0.8
v -6.3 0.1 0.8
v -6.3 3.2 0.8
v 6.3 0.1 0.8
v 6.3 3.2 0.8
v 6.4 0.1 0.8
v 6.4 3.2 0.8
v -6.4 0 -4
v -6.4 0.1 -4
v -6.4 3.2 -4
v -4.8 0 -4
v -4.8 0.1 -4
v -3.2 0 -4
v -3.2 0.1 -4
v -1.6 0 -4
v -1.6 0.1 -4
v 0 0 -4
v 0 0.1 -4
v 1.6 0 -4
v 1.6 0.1 -4
v 3.2 0 -4
v 3.2 0.1 -4
v 4.8 0 -4
v 4.8 0.1 -4
v 6.4 0 -4
v 6.4 3.2 -4
v -6.4 0 4
v -4.8 0 4
v -3.2 0 4
v -1.6 0 4
v 0 0 4
v 1.6 0 4
v 3.2 0 4
v 4.8 0 4
v 6.4 0 4
v -6.4 0 2.4
v -4.8 0 2.4
v -3.2 0 2.4
v -1.6 0 2.4
v 0 0 2.4
v 1.6 0 2.4
v 3.2 0 2.4
v 4.8 0 2.4
v 6.4 0 2.4
v -6.4 0 0.8
v -4.8 0 0.8
v -3.2 0 0.8
v -1.6 0 0.8
v 0 0 0.8
v 1.6 0 0.8
v 3.2 0 0.8
v 4.8 0 0.8
v 6.4 0 0.8
v -6.4 0 -0.8
v -4.8 0 -0.8
v -3.2 0 -0.8
v -1.6 0 -0.8
v 0 0 -0.8
v 1.6 0 -0.8
v 3.2 0 -0.8
v 4.8 0 -0.8
v 6.4 0 -0.8
v -6.4 0 -2.4
v -4.8 0 -2.4
v -3.2 0 -2.4
v -1.6 0 -2.4
v 0 0 -2.4
v 1.6 0 -2.4
v 3.2 0 -2.4
v 4.8 0 -2.4
v 6.4 0 -2.4
v -6.4 0 -4
v -4.8 0 -4
v -3.2 0 -4
v -1.6 0 -4
v 0 0 -4
v 1.6 0 -4
v 3.2 0 -4
v 4.8 0 -4
v 6.4 0 -4
v -6.3 0.1 3.9
v -4.8 0.1 3.9
v -3.2 0.1 3.9
v -1.6 0.1 3.9
v 0 0.1 3.9
v 1.6 0.1 3.9
v 3.2 0.1 3.9
v 4.8 0.1 3.9
v 6.3 0.1 3.9
v -6.3 0.1 2.4
v -4.8 0.1 2.4
v -3.2 0.1 2.4
v -1.6 0.1 2.4
v 0 0.1 2.4
v 1.6 0.1 2.4
v 3.2 0.1 2.4
v 4.8 0.1 2.4
v 6.3 0.1 2.4
v -6.4 0.1 0.8
v -6.3 0.1 0.8
v -4.8 0.1 0.8
v -3.2 0.1 0.8
v -1.6 0.1 0.8
v 0 0.1 0.8
v 1.6 0.1 0.8
v 3.2 0.1 0.8
v 4.8 0.1 0.8
v 6.3 0.1 0.8
v 6.4 0.1 0.8
v -6.4 0.1 -0.8
v -6.3 0.1 -0.8
v -4.8 0.1 -0.8
v -3.2 0.1 -0.8
v -1.6 0.1 -0.8
v 0 0.1 -0.8
v 1.6 0.1 -0.8
v 3.2 0.1 -0.8
v 4.8 0.1 -0.8
v 6.3 0.1 -0.8
v 6.4 0.1 -0.8
v -6.3 0.1 -2.4
v -4.8 0.1 -2.4
v -3.2 0.1 -2.4
v -1.6 0.1 -2.4
v 0 0.1 -2.4
v 1.6 0.1 -2.4
v 3.2 0.1 -2.4
v 4.8 0.1 -2.4
v 6.3 0.1 -2.4
v -6.3 0.1 -3.9
v -4.8 0.1 -3.9
v -3.2 0.1 -3.9
v -1.6 0.1 -3.9
v 0 0.1 -3.9
v 1.6 0.1 -3.9
v 3.2 0.1 -3.9
v 4.8 0.1 -3.9
v 6.3 0.1 -3.9
v -6.4 3.2 4
v 6.4 3.2 4
v -6.3 3.2 3.9
v 6.3 3.2 3.9
v -6.4 3.2 0.8
v -6.3 3.2 0.8
v 6.3 3.2 0.8
v 6.4 3.2 0.8
v -6.4 3.2 -0.8
v -6.3 3.2 -0.8
v 6.3 3.2 -0.8
v 6.4 3.2 -0.8
v -6.3 3.2 -3.9
v 6.3 3.2 -3.9
v -6.4 3.2 -4
v 6.4 3.2 -4

# faces
f 7/2/1 2/2/1 1/2/1
f 8/1/1 3/1/1 2/1/1
f 8/2/1 2/2/1 7/2/1
f 9/2/1 4/2/1 3/2/1
f 9/1/1 3/1/1 8/1/1
f 10/1/1 5/1/1 4/1/1
f 10/2/1 4/2/1 9/2/1
f 11/2/1 6/2/1 5/2/1
f 11/1/1 5/1/1 10/1/1
f 12/2/1 6/2/1 11/2/1
f 13/1/1 8/1/1 7/1/1
f 13/1/1 9/1/1 8/1/1
f 14/1/1 9/1/1 13/1/1
f 15/1/1 12/1/1 11/1/1
f 15/1/1 11/1/1 10/1/1
f 16/1/1 12/1/1 15/1/1
f 23/1/1 18/1/1 17/1/1
f 23/1/1 19/1/1 18/1/1
f 24/1/1 19/1/1 23/1/1
f 25/1/1 22/1/1 21/1/1
f 25/1/1 21/1/1 20/1/1
f 26/1/1 22/1/1 25/1/1
f 27/1/2 28/1/2 33/1/2
f 28/1/2 29/1/2 33/1/2
f 33/1/2 29/1/2 34/1/2
f 31/1/2 32/1/2 35/1/2
f 30/1/2 31/1/2 35/1/2
f 35/1/2 32/1/2 36/1/2
f 37/1/2 38/1/2 43/1/2
f 38/2/2 39/2/2 43/2/2
f 39/1/2 40/1/2 44/1/2
f 43/2/2 39/2/2 44/2/2
f 40/2/2 41/2/2 45/2/2
f 44/1/2 40/1/2 45/1/2
f 41/1/2 42/1/2 46/1/2
f 45/2/2 41/2/2 46/2/2
f 43/1/2 44/1/2 47/1/2
f 37/1/2 43/1/2 47/1/2
f 47/1/2 44/1/2 48/1/2
f 45/1/2 46/1/2 49/1/2
f 46/1/2 42/1/2 50/1/2
f 49/1/2 46/1/2 50/1/2
f 54/2/3 52/2/3 51/2/3
f 55/1/3 53/1/3 52/1/3
f 55/2/3 52/2/3 54/2/3
f 56/1/3 55/1/3 54/1/3
f 57/1/3 53/1/3 55/1/3
f 57/1/3 55/1/3 56/1/3
f 58/2/3 57/2/3 56/2/3
f 59/1/3 53/1/3 57/1/3
f 59/2/3 57/2/3 58/2/3
f 60/1/3 59/1/3 58/1/3
f 61/1/3 53/1/3 59/1/3
f 61/1/3 59/1/3 60/1/3
f 62/2/3 61/2/3 60/2/3
f 63/1/3 53/1/3 61/1/3
f 63/2/3 61/2/3 62/2/3
f 64/1/3 63/1/3 62/1/3
f 65/1/3 53/1/3 63/1/3
f 65/1/3 63/1/3 64/1/3
f 66/2/3 65/2/3 64/2/3
f 67/1/3 53/1/3 65/1/3
f 67/2/3 65/2/3 66/2/3
f 68/1/3 67/1/3 66/1/3
f 69/1/3 53/1/3 67/1/3
f 69/1/3 67/1/3 68/1/3
f 72/1/3 71/1/3 70/1/3
f 73/1/3 71/1/3 72/1/3
f 76/1/3 75/1/3 74/1/3
f 77/1/3 75/1/3 76/1/3
f 80/1/3 79/1/3 78/1/3
f 81/1/3 79/1/3 80/1/3
f 82/1/3 79/1/3 81/1/3
f 83/1/3 79/1/3 82/1/3
f 84/1/3 79/1/3 83/1/3
f 85/1/3 79/1/3 84/1/3
f 86/1/3 79/1/3 85/1/3
f 87/1/3 79/1/3 86/1/3
f 88/1/3 79/1/3 87/1/3
f 89/1/4 90/1/4 91/1/4
f 91/1/4 90/1/4 92/1/4
f 92/1/4 90/1/4 93/1/4
f 93/1/4 90/1/4 94/1/4
f 94/1/4 90/1/4 95/1/4
f 95/1/4 90/1/4 96/1/4
f 96/1/4 90/1/4 97/1/4
f 97/1/4 90/1/4 98/1/4
f 98/1/4 90/1/4 99/1/4
f 100/1/4 101/1/4 102/1/4
f 102/1/4 101/1/4 103/1/4
f 104/1/4 105/1/4 106/1/4
f 106/1/4 105/1/4 107/1/4
f 108/2/4 109/2/4 111/2/4
f 109/1/4 110/1/4 112/1/4
f 111/2/4 109/2/4 112/2/4
f 111/1/4 112/1/4 113/1/4
f 112/1/4 110/1/4 114/1/4
f 113/1/4 112/1/4 114/1/4
f 113/2/4 114/2/4 115/2/4
f 114/1/4 110/1/4 116/1/4
f 115/2/4 114/2/4 116/2/4
f 115/1/4 116/1/4 117/1/4
f 116/1/4 110/1/4 118/1/4
f 117/1/4 116/1/4 118/1/4
f 117/2/4 118/2/4 119/2/4
f 118/1/4 110/1/4 120/1/4
f 119/2/4 118/2/4 120/2/4
f 119/1/4 120/1/4 121/1/4
f 120/1/4 110/1/4 122/1/4
f 121/1/4 120/1/4 122/1/4
f 121/2/4 122/2/4 123/2/4
f 122/1/4 110/1/4 124/1/4
f 123/2/4 122/2/4 124/2/4
f 123/1/4 124/1/4 125/1/4
f 124/1/4 110/1/4 126/1/4
f 125/1/4 124/1/4 126/1/4
f 136/2/5 128/2/5 127/2/5
f 137/1/5 129/1/5 128/1/5
f 137/2/5 128/2/5 136/2/5
f 138/2/5 130/2/5 129/2/5
f 138/1/5 129/1/5 137/1/5
f 139/1/5 131/1/5 130/1/5
f 139/2/5 130/2/5 138/2/5
f 140/2/5 132/2/5 131/2/5
f 140/1/5 131/1/5 139/1/5
f 141/1/5 133/1/5 132/1/5
f 141/2/5 132/2/5 140/2/5
f 142/2/5 134/2/5 133/2/5
f 142/1/5 133/1/5 141/1/5
f 143/1/5 135/1/5 134/1/5
f 143/2/5 134/2/5 142/2/5
f 144/1/5 135/1/5 143/1/5
f 145/1/5 137/1/5 136/1/5
f 146/2/5 138/2/5 137/2/5
f 146/1/5 137/1/5 145/1/5
f 147/1/5 139/1/5 138/1/5
f 147/2/5 138/2/5 146/2/5
f 148/2/5 140/2/5 139/2/5
f 148/1/5 139/1/5 147/1/5
f 149/1/5 141/1/5 140/1/5
f 149/2/5 140/2/5 148/2/5
f 150/2/5 142/2/5 141/2/5
f 150/1/5 141/1/5 149/1/5
f 151/1/5 143/1/5 142/1/5
f 151/2/5 142/2/5 150/2/5
f 152/2/5 144/2/5 143/2/5
f 152/1/5 143/1/5 151/1/5
f 153/2/5 144/2/5 152/2/5
f 154/2/5 146/2/5 145/2/5
f 155/1/5 147/1/5 146/1/5
f 155/2/5 146/2/5 154/2/5
f 156/2/5 148/2/5 147/2/5
f 156/1/5 147/1/5 155/1/5
f 157/1/5 149/1/5 148/1/5
f 157/2/5 148/2/5 156/2/5
f 158/2/5 150/2/5 149/2/5
f 158/1/5 149/1/5 157/1/5
f 159/1/5 151/1/5 150/1/5
f 159/2/5 150/2/5 158/2/5
f 160/2/5 152/2/5 151/2/5
f 160/1/5 151/1/5 159/1/5
f 161/1/5 153/1/5 152/1/5
f 161/2/5 152/2/5 160/2/5
f 162/1/5 153/1/5 161/1/5
f 163/1/5 155/1/5 154/1/5
f 164/2/5 156/2/5 155/2/5
f 164/1/5 155/1/5 163/1/5
f 165/1/5 157/1/5 156/1/5
f 165/2/5 156/2/5 164/2/5
f 166/2/5 158/2/5 157/2/5
f 166/1/5 157/1/5 165/1/5
f 167/1/5 159/1/5 158/1/5
f 167/2/5 158/2/5 166/2/5
f 168/2/5 160/2/5 159/2/5
f 168/1/5 159/1/5 167/1/5
f 169/1/5 161/1/5 160/1/5
f 169/2/5 160/2/5 168/2/5
f 170/2/5 162/2/5 161/2/5
f 170/1/5 161/1/5 169/1/5
f 171/2/5 162/2/5 170/2/5
f 172/2/5 164/2/5 163/2/5
f 173/1/5 165/1/5 164/1/5
f 173/2/5 164/2/5 172/2/5
f 174/2/5 166/2/5 165/2/5
f 174/1/5 165/1/5 173/1/5
f 175/1/5 167/1/5 166/1/5
f 175/2/5 166/2/5 174/2/5
f 176/2/5 168/2/5 167/2/5
f 176/1/5 167/1/5 175/1/5
f 177/1/5 169/1/5 168/1/5
f 177/2/5 168/2/5 176/2/5
f 178/2/5 170/2/5 169/2/5
f 178/1/5 169/1/5 177/1/5
f 179/1/5 171/1/5 170/1/5
f 179/2/5 170/2/5 178/2/5
f 180/1/5 171/1/5 179/1/5
f 181/2/6 182/2/6 190/2/6
f 182/1/6 183/1/6 191/1/6
f 190/2/6 182/2/6 191/2/6
f 183/2/6 184/2/6 192/2/6
f 191/1/6 183/1/6 192/1/6
f 184/1/6 185/1/6 193/1/6
f 192/2/6 184/2/6 193/2/6
f 185/2/6 186/2/6 194/2/6
f 193/1/6 185/1/6 194/1/6
f 186/1/6 187/1/6 195/1/6
f 194/2/6 186/2/6 195/2/6
f 187/2/6 188/2/6 196/2/6
f 195/1/6 187/1/6 196/1/6
f 188/1/6 189/1/6 197/1/6
f 196/2/6 188/2/6 197/2/6
f 197/1/6 189/1/6 198/1/6
f 190/1/6 191/1/6 200/1/6
f 191/2/6 192/2/6 201/2/6
f 200/1/6 191/1/6 201/1/6
f 192/1/6 193/1/6 202/1/6
f 201/2/6 192/2/6 202/2/6
f 193/2/6 194/2/6 203/2/6
f 202/1/6 193/1/6 203/1/6
f 194/1/6 195/1/6 204/1/6
f 203/2/6 194/2/6 204/2/6
f 195/2/6 196/2/6 205/2/6
f 204/1/6 195/1/6 205/1/6
f 196/1/6 197/1/6 206/1/6
f 205/2/6 196/2/6 206/2/6
f 197/2/6 198/2/6 207/2/6
f 206/1/6 197/1/6 207/1/6
f 207/2/6 198/2/6 208/2/6
f 199/2/6 200/2/6 210/2/6
f 200/2/6 201/2/6 210/2/6
f 210/2/6 201/2/6 211/2/6
f 201/1/6 202/1/6 212/1/6
f 211/2/6 201/2/6 212/2/6
f 202/2/6 203/2/6 213/2/6
f 212/1/6 202/1/6 213/1/6
f 203/1/6 204/1/6 214/1/6
f 213/2/6 203/2/6 214/2/6
f 204/2/6 205/2/6 215/2/6
f 214/1/6 204/1/6 215/1/6
f 205/1/6 206/1/6 216/1/6
f 215/2/6 205/2/6 216/2/6
f 206/2/6 207/2/6 217/2/6
f 216/1/6 206/1/6 217/1/6
f 207/1/6 208/1/6 218/1/6
f 217/2/6 207/2/6 218/2/6
f 208/1/6 209/1/6 218/1/6
f 218/1/6 209/1/6 219/1/6
f 219/1/6 209/1/6 220/1/6
f 211/1/6 212/1/6 221/1/6
f 212/2/6 213/2/6 222/2/6
f 221/1/6 212/1/6 222/1/6
f 213/1/6 214/1/6 223/1/6
f 222/2/6 213/2/6 223/2/6
f 214/2/6 215/2/6 224/2/6
f 223/1/6 214/1/6 224/1/6
f 215/1/6 216/1/6 225/1/6
f 224/2/6 215/2/6 225/2/6
f 216/2/6 217/2/6 226/2/6
f 225/1/6 216/1/6 226/1/6
f 217/1/6 218/1/6 227/1/6
f 226/2/6 217/2/6 227/2/6
f 218/2/6 219/2/6 228/2/6
f 227/1/6 218/1/6 228/1/6
f 228/2/6 219/2/6 229/2/6
f 221/2/6 222/2/6 230/2/6
f 222/1/6 223/1/6 231/1/6
f 230/2/6 222/2/6 231/2/6
f 223/2/6 224/2/6 232/2/6
f 231/1/6 223/1/6 232/1/6
f 224/1/6 225/1/6 233/1/6
f 232/2/6 224/2/6 233/2/6
f 225/2/6 226/2/6 234/2/6
f 233/1/6 225/1/6 234/1/6
f 226/1/6 227/1/6 235/1/6
f 234/2/6 226/2/6 235/2/6
f 227/2/6 228/2/6 236/2/6
f 235/1/6 227/1/6 236/1/6
f 228/1/6 229/1/6 237/1/6
f 236/2/6 228/2/6 237/2/6
f 237/1/6 229/1/6 238/1/6
f 239/1/6 240/1/6 241/1/6
f 241/1/6 240/1/6 242/1/6
f 239/1/6 241/1/6 243/1/6
f 243/1/6 241/1/6 244/1/6
f 242/1/6 240/1/6 245/1/6
f 245/1/6 240/1/6 246/1/6
f 247/1/6 248/1/6 251/1/6
f 249/1/6 250/1/6 252/1/6
f 247/1/6 251/1/6 253/1/6
f 251/1/6 252/1/6 253/1/6
f 252/1/6 250/1/6 254/1/6
f 253/1/6 252/1/6 254/1/6
